<svg width="205" height="190" viewBox="0 0 205 190" fill="none" xmlns="http://www.w3.org/2000/svg">
<path d="M125.441 91.1406L54.53 79.5625V165.116C54.5308 166.045 54.7292 166.966 55.1137 167.824C55.4983 168.682 56.0614 169.462 56.7711 170.119C57.4808 170.775 58.3231 171.296 59.2499 171.651C60.1767 172.006 61.1698 172.188 62.1727 172.188H184.532C185.536 172.19 186.53 172.009 187.459 171.654C188.387 171.3 189.231 170.78 189.942 170.123C190.653 169.466 191.217 168.686 191.603 167.827C191.988 166.968 192.187 166.046 192.187 165.116V133.594L125.441 91.1406Z" fill="#185C37"/>
<path d="M125.441 17.8125H62.1727C61.1698 17.8117 60.1767 17.994 59.2499 18.349C58.3231 18.7039 57.4808 19.2246 56.7711 19.8813C56.0614 20.5379 55.4983 21.3177 55.1137 22.1761C54.7292 23.0345 54.5308 23.9546 54.53 24.8841V56.4063L125.441 95L162.988 106.578L192.187 95V56.4063L125.441 17.8125Z" fill="#21A366"/>
<path d="M54.53 56.4062H125.441V95H54.53V56.4062Z" fill="#107C41"/>
<path opacity="0.1" d="M105.28 48.6875H54.53V145.172H105.28C107.303 145.163 109.239 144.415 110.671 143.091C112.103 141.768 112.914 139.975 112.929 138.1V55.7591C112.914 53.8848 112.103 52.0916 110.671 50.7679C109.239 49.4443 107.303 48.6968 105.28 48.6875V48.6875Z" fill="black"/>
<path opacity="0.2" d="M101.11 52.5469H54.53V149.031H101.11C103.132 149.022 105.069 148.274 106.501 146.951C107.932 145.627 108.744 143.834 108.759 141.96V59.6184C108.744 57.7442 107.932 55.951 106.501 54.6273C105.069 53.3037 103.132 52.5562 101.11 52.5469V52.5469Z" fill="black"/>
<path opacity="0.2" d="M101.11 52.5469H54.53V141.312H101.11C103.132 141.303 105.069 140.556 106.501 139.232C107.932 137.908 108.744 136.115 108.759 134.241V59.6184C108.744 57.7442 107.932 55.951 106.501 54.6273C105.069 53.3037 103.132 52.5562 101.11 52.5469V52.5469Z" fill="black"/>
<path opacity="0.2" d="M96.9394 52.5469H54.53V141.312H96.9394C98.9616 141.303 100.898 140.556 102.33 139.232C103.762 137.908 104.573 136.115 104.588 134.241V59.6184C104.573 57.7442 103.762 55.951 102.33 54.6273C100.898 53.3037 98.9616 52.5562 96.9394 52.5469V52.5469Z" fill="black"/>
<path d="M20.4616 52.5469H96.9394C98.9652 52.5453 100.909 53.2893 102.343 54.6153C103.777 55.9413 104.585 57.7408 104.588 59.6184V130.382C104.585 132.259 103.777 134.059 102.343 135.385C100.909 136.711 98.9652 137.455 96.9394 137.453H20.4616C19.4582 137.455 18.4644 137.273 17.5368 136.918C16.6093 136.564 15.7663 136.043 15.0559 135.386C14.3455 134.73 13.7818 133.95 13.3968 133.091C13.0119 132.232 12.8133 131.312 12.8125 130.382V59.6184C12.8133 58.6885 13.0119 57.7679 13.3968 56.9091C13.7818 56.0503 14.3455 55.2703 15.0559 54.6135C15.7663 53.9568 16.6093 53.4363 17.5368 53.0816C18.4644 52.727 19.4582 52.5453 20.4616 52.5469V52.5469Z" fill="url(#paint0_linear_414_20)"/>
<path d="M36.5156 117.996L52.6017 94.9348L37.8673 72.0042H49.6997L57.7395 86.6876C58.4827 88.077 59.0208 89.1101 59.2642 89.7988H59.3731C59.8984 88.6826 60.4558 87.6079 61.0388 86.557L69.6359 72.0279H80.5266L65.4142 94.8279L80.9109 118.014H69.322L60.033 101.917C59.6017 101.225 59.2352 100.5 58.9375 99.7501H58.7837C58.5129 100.481 58.1517 101.18 57.7075 101.834L48.143 117.996H36.5156Z" fill="white"/>
<path d="M184.538 17.8125H125.441V56.4063H192.187V24.8841C192.187 23.9541 191.988 23.0335 191.603 22.1747C191.218 21.3159 190.654 20.5359 189.944 19.8792C189.234 19.2224 188.391 18.7019 187.463 18.3473C186.536 17.9927 185.542 17.8109 184.538 17.8125V17.8125Z" fill="#33C481"/>
<path d="M125.441 95H192.187V133.594H125.441V95Z" fill="#107C41"/>
<defs>
<linearGradient id="paint0_linear_414_20" x1="28.7897" y1="46.9894" x2="82.0549" y2="146.519" gradientUnits="userSpaceOnUse">
<stop stop-color="#18884F"/>
<stop offset="0.5" stop-color="#117E43"/>
<stop offset="1" stop-color="#0B6631"/>
</linearGradient>
</defs>
</svg>
