<svg width="120" height="120" viewBox="0 0 120 120" fill="none" xmlns="http://www.w3.org/2000/svg">
<path d="M80 80C91.0457 80 100 71.0457 100 60C100 48.9543 91.0457 40 80 40C68.9543 40 60 48.9543 60 60C60 71.0457 68.9543 80 80 80Z" fill="#19BCFE"/>
<path fill-rule="evenodd" clip-rule="evenodd" d="M40 120C45.3043 120 50.3914 117.893 54.1421 114.142C57.8929 110.391 60 105.304 60 100V80H40C34.6957 80 29.6086 82.1071 25.8579 85.8579C22.1071 89.6086 20 94.6957 20 100C20 105.304 22.1071 110.391 25.8579 114.142C29.6086 117.893 34.6957 120 40 120Z" fill="#09CF83"/>
<path fill-rule="evenodd" clip-rule="evenodd" d="M40 80H60V40H40C34.6957 40 29.6086 42.1071 25.8579 45.8579C22.1071 49.6086 20 54.6957 20 60C20 65.3043 22.1071 70.3914 25.8579 74.1421C29.6086 77.8929 34.6957 80 40 80Z" fill="#A259FF"/>
<path fill-rule="evenodd" clip-rule="evenodd" d="M40 40H60V0H40C34.6957 0 29.6086 2.10714 25.8579 5.85786C22.1071 9.60859 20 14.6957 20 20C20 25.3043 22.1071 30.3914 25.8579 34.1421C29.6086 37.8929 34.6957 40 40 40Z" fill="#F24E1E"/>
<path fill-rule="evenodd" clip-rule="evenodd" d="M80 40H60V0H80C85.3043 0 90.3914 2.10714 94.1421 5.85786C97.8929 9.60859 100 14.6957 100 20C100 25.3043 97.8929 30.3914 94.1421 34.1421C90.3914 37.8929 85.3043 40 80 40Z" fill="#FF7262"/>
</svg>
