<svg xmlns="http://www.w3.org/2000/svg" width="120" height="120" fill="none" viewBox="0 0 120 120">
  <g class="logos:git-icon" clip-path="url(#clip0_16_412)">
    <path fill="#DE4C36" d="M117.737 54.653L65.344 2.263a7.728 7.728 0 00-10.929 0l-10.88 10.88 13.802 13.801c3.207-1.084 6.885-.357 9.442 2.2a9.188 9.188 0 012.18 9.5l13.301 13.3c3.218-1.108 6.93-.39 9.501 2.184a9.192 9.192 0 010 13.003 9.195 9.195 0 01-13.007 0 9.201 9.201 0 01-2.002-10.001L64.348 44.726l-.001 32.642a9.29 9.29 0 012.432 1.74c3.592 3.59 3.592 9.41 0 13.005-3.593 3.592-9.416 3.592-13.003 0-3.593-3.595-3.593-9.415 0-13.005a9.213 9.213 0 013.01-2.007V44.154a9.083 9.083 0 01-3.01-2.007c-2.722-2.717-3.377-6.71-1.982-10.052L38.19 18.488 2.264 54.411a7.73 7.73 0 000 10.932l52.394 52.391a7.728 7.728 0 0010.93 0l52.148-52.147a7.733 7.733 0 000-10.934" class="Vector"/>
  </g>
  <defs>
    <clipPath id="clip0_16_412" class="clip0_16_412">
      <path fill="#fff" d="M0 0h120v120H0z"/>
    </clipPath>
  </defs>
</svg>
