<svg width="60" height="60" viewBox="0 0 60 60" fill="none" xmlns="http://www.w3.org/2000/svg">
<path d="M30.0002 0C13.4337 0 0 13.7537 0 30.7202C0 44.2932 8.59594 55.8086 20.516 59.8706C22.0153 60.155 22.5659 59.2042 22.5659 58.3927C22.5659 57.6602 22.5377 55.2403 22.5251 52.6735C14.179 54.5316 12.4179 49.0488 12.4179 49.0488C11.0531 45.498 9.08672 44.5536 9.08672 44.5536C6.36492 42.647 9.29203 42.6864 9.29203 42.6864C12.3045 42.9029 13.8907 45.852 13.8907 45.852C16.5666 50.5483 20.9091 49.1906 22.6209 48.4056C22.8902 46.4203 23.6677 45.0648 24.5257 44.2978C17.8622 43.5211 10.8574 40.8869 10.8574 29.1158C10.8574 25.7618 12.0293 23.0213 13.9484 20.8699C13.6369 20.0962 12.6101 16.9718 14.239 12.7402C14.239 12.7402 16.7583 11.9146 22.4913 15.8892C24.8843 15.2086 27.4507 14.8673 30.0002 14.8555C32.5498 14.8673 35.1183 15.2083 37.5157 15.8892C43.2417 11.9148 45.7575 12.7404 45.7575 12.7404C47.3904 16.9716 46.3631 20.0964 46.0516 20.8699C47.9752 23.0213 49.1391 25.7618 49.1391 29.1158C49.1391 40.915 42.1209 43.513 35.4405 44.2735C36.5166 45.2268 37.4754 47.0964 37.4754 49.9625C37.4754 54.0727 37.4407 57.3809 37.4407 58.3927C37.4407 59.2104 37.9807 60.1682 39.5013 59.8663C51.4148 55.8 60 44.2889 60 30.7205C60 13.7537 46.5682 0 30.0002 0ZM11.2362 43.7616C11.1701 43.9142 10.9355 43.9601 10.722 43.8552C10.5042 43.7551 10.3821 43.547 10.4524 43.3939C10.5171 43.2367 10.7522 43.1928 10.9692 43.2982C11.1872 43.3985 11.3114 43.6085 11.2362 43.7616ZM12.7118 45.1099C12.5688 45.2458 12.289 45.1826 12.0991 44.9681C11.903 44.754 11.8662 44.4674 12.0113 44.3297C12.1589 44.1938 12.4301 44.2574 12.6267 44.4715C12.8231 44.6882 12.8611 44.9726 12.7118 45.1099ZM13.7243 46.835C13.5403 46.9658 13.2398 46.8432 13.054 46.5701C12.8702 46.297 12.8702 45.9694 13.058 45.8381C13.2443 45.7068 13.5403 45.8249 13.7285 46.0961C13.9118 46.3738 13.9118 46.7014 13.7241 46.8353L13.7243 46.835ZM15.4362 48.833C15.2719 49.0188 14.9215 48.9689 14.6651 48.7154C14.4028 48.4678 14.3299 48.1164 14.4949 47.9306C14.6613 47.7444 15.0136 47.7967 15.2719 48.0482C15.532 48.2954 15.6117 48.6494 15.4362 48.833ZM17.6491 49.5074C17.5765 49.7482 17.239 49.8576 16.8994 49.7554C16.56 49.65 16.338 49.3682 16.4065 49.1251C16.477 48.8827 16.8159 48.769 17.1581 48.8784C17.497 48.983 17.7197 49.2629 17.6491 49.5077V49.5074ZM20.1673 49.7938C20.1757 50.047 19.8877 50.257 19.5309 50.2618C19.1723 50.2699 18.882 50.065 18.878 49.8154C18.878 49.5598 19.1597 49.3517 19.5185 49.3454C19.8752 49.3382 20.1673 49.5418 20.1673 49.7938ZM22.6411 49.6966C22.6838 49.9438 22.436 50.1977 22.0816 50.2654C21.7336 50.3304 21.4111 50.1778 21.3668 49.9327C21.3237 49.6793 21.5761 49.4254 21.9237 49.3598C22.2785 49.2967 22.5959 49.4453 22.6411 49.6966Z" fill="#222222"/>
</svg>
