<svg width="256" height="239" viewBox="0 0 256 239" fill="none" xmlns="http://www.w3.org/2000/svg">
<g clip-path="url(#clip0_414_38)">
<path d="M224.022 173.159H131.063C108.583 173.159 95.993 188.895 95.993 205.644C95.993 221.099 106.672 238.128 131.063 238.128H224.022V173.158V173.159Z" fill="#669DF6"/>
<path d="M224.022 238.072C241.684 238.072 256.001 223.528 256.001 205.587C256.001 187.646 241.684 173.102 224.022 173.102C206.36 173.102 192.043 187.646 192.043 205.587C192.043 223.528 206.36 238.072 224.022 238.072Z" fill="#1A73E8"/>
<path d="M128.028 86.551H35.07C12.59 86.551 0 102.288 0 119.036C0 134.492 10.678 151.521 35.07 151.521H128.028V86.55V86.551Z" fill="#669DF6"/>
<path d="M128.028 151.521C145.69 151.521 160.007 136.977 160.007 119.036C160.007 101.095 145.69 86.551 128.028 86.551C110.366 86.551 96.049 101.095 96.049 119.036C96.049 136.977 110.366 151.521 128.028 151.521Z" fill="#1A73E8"/>
<path d="M224.022 0H131.063C108.583 0 95.993 15.737 95.993 32.485C95.993 47.94 106.672 64.97 131.063 64.97H224.022V0Z" fill="#669DF6"/>
<path d="M224.022 64.97C241.684 64.97 256.001 50.426 256.001 32.485C256.001 14.544 241.684 0 224.022 0C206.36 0 192.043 14.544 192.043 32.485C192.043 50.426 206.36 64.97 224.022 64.97Z" fill="#1A73E8"/>
</g>
<defs>
<clipPath id="clip0_414_38">
<rect width="256" height="239" fill="white"/>
</clipPath>
</defs>
</svg>
