<svg xmlns="http://www.w3.org/2000/svg" width="100" height="120" fill="none" viewBox="0 0 100 120">
  <g class="logos:html-5">
    <path fill="#E44D26" d="M99.826 23.523l-9.078 86.547-40.809 9.627-40.696-9.614-9.07-86.56h99.653z" class="Vector"/>
    <path fill="#F16529" d="M50 112.338l32.975-7.78 7.758-73.957H50v81.737z" class="Vector_2"/>
    <path fill="#EBEBEB" d="M32.352 51.834H50V41.216H18.718l.298 2.848 3.066 29.256H50V62.705H33.492l-1.14-10.871z" class="Vector_3"/>
    <path fill="#EBEBEB" d="M35.163 78.629H22.64l1.747 16.669 25.556 6.037.057-.014V90.276l-.055.012-13.893-3.192-.889-8.467z" class="Vector_4"/>
    <path fill="#000" d="M9.445 0h6.34v5.33h5.8V0h6.34v16.141h-6.34v-5.405h-5.8v5.405h-6.34V0z" class="Vector_5"/>
    <path fill="#000" d="M36.262 5.353h-5.58V0h17.505v5.353h-5.584V16.14h-6.34V5.353h-.001z" class="Vector_6"/>
    <path fill="#000" d="M50.965 0h6.61l4.067 5.672L65.704 0h6.614v16.141h-6.314v-8l-4.362 5.739h-.11l-4.364-5.74v8.001h-6.203V0z" class="Vector_7"/>
    <path fill="#000" d="M75.473 0h6.341v10.806h8.916v5.335H75.472V0z" class="Vector_8"/>
    <path fill="#fff" d="M49.957 73.32h15.362l-1.448 13.77-13.914 3.195v11.045l25.575-6.032.188-1.794 2.932-27.949.304-2.85H49.957V73.32z" class="Vector_9"/>
    <path fill="#fff" d="M49.957 51.807v.026h30.134l.25-2.386.569-5.382.298-2.848H49.957v10.59z" class="Vector_10"/>
  </g>
</svg>
