<svg xmlns="http://www.w3.org/2000/svg" width="120" height="120" fill="none" viewBox="0 0 120 120">
  <g class="logos:javascript">
    <path fill="#F7DF1E" d="M0 0h120v120H0V0z" class="Vector"/>
    <path fill="#000" d="M31.552 100.281l9.183-5.558c1.772 3.141 3.384 5.799 7.25 5.799 3.705 0 6.042-1.45 6.042-7.087V55.092h11.276v38.502c0 11.68-6.846 16.996-16.835 16.996-9.021 0-14.258-4.672-16.916-10.31" class="Vector_2"/>
    <path fill="#000" d="M71.429 99.072l9.181-5.316c2.418 3.948 5.56 6.847 11.117 6.847 4.673 0 7.652-2.336 7.652-5.558 0-3.867-3.06-5.236-8.216-7.49l-2.819-1.21c-8.136-3.463-13.532-7.813-13.532-16.996 0-8.458 6.443-14.902 16.513-14.902 7.169 0 12.324 2.497 16.029 9.022l-8.78 5.639c-1.934-3.464-4.028-4.833-7.25-4.833-3.303 0-5.397 2.094-5.397 4.833 0 3.383 2.094 4.753 6.927 6.847l2.82 1.208c9.585 4.109 14.982 8.297 14.982 17.721 0 10.15-7.974 15.708-18.688 15.708-10.471 0-17.238-4.994-20.54-11.52" class="Vector_3"/>
  </g>
</svg>
