<svg width="66" height="62" viewBox="0 0 66 62" fill="none" xmlns="http://www.w3.org/2000/svg">
<path fill-rule="evenodd" clip-rule="evenodd" d="M2.75 7.33167C2.75 6.07238 3.28253 4.86466 4.23043 3.97421C5.17833 3.08375 6.46396 2.5835 7.8045 2.5835H58.19C58.8543 2.58248 59.5124 2.70456 60.1264 2.94276C60.7404 3.18095 61.2984 3.53058 61.7684 3.97162C62.2384 4.41266 62.6112 4.93646 62.8655 5.51303C63.1197 6.08959 63.2504 6.7076 63.25 7.33167V54.6635C63.2507 55.2877 63.1204 55.9059 62.8666 56.4827C62.6127 57.0596 62.2403 57.5837 61.7705 58.0252C61.3008 58.4667 60.7431 58.8169 60.1291 59.0557C59.5152 59.2944 58.8572 59.4172 58.1927 59.4168H7.8045C7.1405 59.4168 6.48301 59.2939 5.86959 59.0552C5.25617 58.8164 4.69885 58.4664 4.22946 58.0252C3.76007 57.584 3.38781 57.0603 3.13396 56.4839C2.88011 55.9076 2.74964 55.2898 2.75 54.6661V7.33167ZM26.697 24.2525H34.8893V28.1172C36.0718 25.8955 39.0967 23.896 43.6425 23.896C52.3573 23.896 54.4225 28.3213 54.4225 36.4407V51.4808H45.6032V38.2903C45.6032 33.6662 44.4207 31.057 41.4178 31.057C37.2515 31.057 35.519 33.8703 35.519 38.2903V51.4808H26.697V24.2525ZM11.572 51.1269H20.394V23.896H11.572V51.1243V51.1269ZM21.6563 15.0145C21.6729 15.7241 21.5385 16.4296 21.2609 17.0897C20.9833 17.7498 20.5682 18.3512 20.0399 18.8586C19.5116 19.3659 18.8807 19.7691 18.1843 20.0443C17.4878 20.3195 16.7399 20.4612 15.9844 20.4612C15.2288 20.4612 14.4809 20.3195 13.7845 20.0443C13.0881 19.7691 12.4572 19.3659 11.9289 18.8586C11.4005 18.3512 10.9854 17.7498 10.7078 17.0897C10.4303 16.4296 10.2959 15.7241 10.3125 15.0145C10.3451 13.6217 10.9571 12.2963 12.0172 11.3221C13.0773 10.3479 14.5014 9.80241 15.9844 9.80241C17.4674 9.80241 18.8914 10.3479 19.9516 11.3221C21.0117 12.2963 21.6236 13.6217 21.6563 15.0145Z" fill="black"/>
</svg>
