<svg xmlns="http://www.w3.org/2000/svg" width="135" height="118" fill="none" viewBox="0 0 135 118">
  <g class="logos:r-lang">
    <path fill="url(#paint0_linear_16_414)" d="M78.75 91.302c-28.125 0-52.027-16.332-52.027-35.897 0-19.565 21.09-35.84 49.215-35.84 35.52 0 51.981 15.842 51.981 35.406 0 19.565-18.144 36.331-49.17 36.331zM67.5 0C30.938 0 0 22.825 0 52.172 0 79.89 30.75 102.9 67.313 102.9S135 81.52 135 52.172C135 22.825 104.062 0 67.5 0z" class="Vector"/>
    <path fill="#2165B6" d="M55.87 31.688v86.274h22.488v-33.55c5.621 0 8.97-1.424 12.648 6.39 5.622 11.184 12.65 27.16 12.65 27.16h26.703s-16.865-31.953-18.271-33.55c-2.591-3.196-5.622-3.196-9.838-4.794 8.433-1.597 16.295-5.654 19.028-14.346 2.389-7.988 2.108-18.149-3.013-24.963-4.436-5.392-8.987-8.62-20.231-8.62H55.87zm22.488 17.968h14.757c3.5 0 6.324 3.994 6.324 7.988s-2.81 7.988-6.324 7.988H78.358V49.656z" class="Vector_2"/>
  </g>
  <defs>
    <linearGradient id="paint0_linear_16_414" x1="51.264" x2="102.509" y1="17.492" y2="92.54" class="paint0_linear_16_414" gradientUnits="userSpaceOnUse">
      <stop stop-color="#C9CBCE"/>
      <stop offset="1" stop-color="#7B7A81"/>
    </linearGradient>
  </defs>
</svg>
