<svg xmlns="http://www.w3.org/2000/svg" width="1058" height="767" fill="none" viewBox="0 0 1058 767">
  <g class="final-transition">
    <g class="plain-screen">
      <g class="Group">
        <mask id="a" width="1057" height="678" x="1" y="0" class="mask0_133_73" maskUnits="userSpaceOnUse" style="mask-type:alpha">
          <g class="a">
            <path fill="#fff" d="M1048 0H11C5.477 0 1 4.477 1 10v657.04c0 5.523 4.477 10 10 10h1037c5.52 0 10-4.477 10-10V10c0-5.523-4.48-10-10-10z" class="Vector"/>
          </g>
        </mask>
        <g mask="url(#a)">
          <path fill="#FDFDFD" stroke="#000" stroke-width="40" d="M1048 0H11C5.477 0 1 4.477 1 10v657.04c0 5.523 4.477 10 10 10h1037c5.52 0 10-4.477 10-10V10c0-5.523-4.48-10-10-10z" class="Vector_2"/>
        </g>
      </g>
      <g class="Group_2">
        <path stroke="#ADADAD" stroke-width="2" d="M42.639 80.875h28.828" class="Vector_3"/>
        <path stroke="#ADADAD" stroke-width="2" d="M42.639 91.109h28.828" class="Vector_4"/>
        <path stroke="#ADADAD" stroke-width="2" d="M42.639 101.343h28.828" class="Vector_5"/>
      </g>
      <path fill="#C4C4C4" d="M276 750h498v16H276v-16z" class="Vector_6"/>
      <g class="Group_3">
        <path stroke="#000" d="M920.365 45.948h20.799" class="Vector_7"/>
        <g class="Group_4">
          <path fill="#fff" d="M651.996 478.061h-16.8c-.37 0-.726.145-.99.404-.262.258-.41.608-.41.974v11.021c0 .366.148.716.41.975.263.258.619.403.99.403h16.8c.371 0 .727-.145.99-.403a1.373 1.373 0 00.41-.975v-11.021c0-.366-.148-.716-.41-.974a1.414 1.414 0 00-.99-.404zm-9.1 4.822h-3.5v4.133h3.5v1.378h-3.5a1.41 1.41 0 01-.99-.404 1.357 1.357 0 01-.41-.974v-4.133c0-.365.148-.716.41-.974.263-.258.619-.404.99-.404h3.5v1.378zm7 0h-3.5v4.133h3.5v1.378h-3.5a1.41 1.41 0 01-.99-.404 1.357 1.357 0 01-.41-.974v-4.133c0-.365.148-.716.41-.974.263-.258.619-.404.99-.404h3.5v1.378z" class="Vector_8"/>
        </g>
        <path fill="#C4C4C4" d="M936.385 110.216c9.72 0 17.599-7.754 17.599-17.32s-7.879-17.32-17.599-17.32-17.599 7.755-17.599 17.32c0 9.566 7.879 17.32 17.599 17.32z" class="Vector_9"/>
        <path fill="#389A42" d="M998.783 110.216c9.717 0 17.597-7.754 17.597-17.32s-7.88-17.32-17.597-17.32c-9.72 0-17.599 7.755-17.599 17.32 0 9.566 7.879 17.32 17.599 17.32z" class="Vector_10"/>
        <path fill="#fff" d="M1002.42 88.336V89.5h-3.691v2.562h2.871v1.163h-2.871v3.8h-1.425v-8.688h5.116z" class="Vector_11"/>
        <path fill="#fff" d="M600.397 613.25c-.584 0-1.112-.1-1.584-.3a2.595 2.595 0 01-1.104-.864c-.272-.376-.412-.82-.42-1.332h1.8c.024.344.144.616.36.816.224.2.528.3.912.3.392 0 .7-.092.924-.276a.934.934 0 00.336-.744.858.858 0 00-.228-.612 1.526 1.526 0 00-.576-.372 7.9 7.9 0 00-.936-.312c-.544-.16-.988-.316-1.332-.468a2.47 2.47 0 01-.876-.708c-.24-.32-.36-.744-.36-1.272 0-.496.124-.928.372-1.296a2.33 2.33 0 011.044-.84c.448-.2.96-.3 1.536-.3.864 0 1.564.212 2.1.636.544.416.844 1 .9 1.752h-1.848a.94.94 0 00-.372-.708c-.224-.192-.524-.288-.9-.288-.328 0-.592.084-.792.252-.192.168-.288.412-.288.732 0 .224.072.412.216.564.152.144.336.264.552.36.224.088.536.192.936.312.544.16.988.32 1.332.48.344.16.64.4.888.72.248.32.372.74.372 1.26 0 .448-.116.864-.348 1.248-.232.384-.572.692-1.02.924-.448.224-.98.336-1.596.336zm6.076-8.46v5.184c0 .568.148 1.004.444 1.308.296.296.712.444 1.248.444.544 0 .964-.148 1.26-.444.296-.304.444-.74.444-1.308v-5.184h1.692v5.172c0 .712-.156 1.316-.468 1.812a2.895 2.895 0 01-1.236 1.104 3.883 3.883 0 01-1.716.372 3.846 3.846 0 01-1.704-.372 2.849 2.849 0 01-1.2-1.104c-.296-.496-.444-1.1-.444-1.812v-5.172h1.68zm11.464 4.08c.472.088.86.324 1.164.708.304.384.456.824.456 1.32 0 .448-.112.844-.336 1.188-.216.336-.532.6-.948.792-.416.192-.908.288-1.476.288h-3.612v-8.376h3.456c.568 0 1.056.092 1.464.276.416.184.728.44.936.768.216.328.324.7.324 1.116 0 .488-.132.896-.396 1.224-.256.328-.6.56-1.032.696zm-3.072-.624h1.536c.4 0 .708-.088.924-.264.216-.184.324-.444.324-.78s-.108-.596-.324-.78c-.216-.184-.524-.276-.924-.276h-1.536v2.1zm1.692 3.552c.408 0 .724-.096.948-.288.232-.192.348-.464.348-.816 0-.36-.12-.64-.36-.84-.24-.208-.564-.312-.972-.312h-1.656v2.256h1.692zm7.231 1.452c-.584 0-1.112-.1-1.584-.3a2.595 2.595 0 01-1.104-.864c-.272-.376-.412-.82-.42-1.332h1.8c.024.344.144.616.36.816.224.2.528.3.912.3.392 0 .7-.092.924-.276a.934.934 0 00.336-.744.858.858 0 00-.228-.612 1.526 1.526 0 00-.576-.372 7.9 7.9 0 00-.936-.312c-.544-.16-.988-.316-1.332-.468a2.47 2.47 0 01-.876-.708c-.24-.32-.36-.744-.36-1.272 0-.496.124-.928.372-1.296a2.33 2.33 0 011.044-.84c.448-.2.96-.3 1.536-.3.864 0 1.564.212 2.1.636.544.416.844 1 .9 1.752h-1.848a.94.94 0 00-.372-.708c-.224-.192-.524-.288-.9-.288-.328 0-.592.084-.792.252-.192.168-.288.412-.288.732 0 .224.072.412.216.564.152.144.336.264.552.36.224.088.536.192.936.312.544.16.988.32 1.332.48.344.16.64.4.888.72.248.32.372.74.372 1.26 0 .448-.116.864-.348 1.248-.232.384-.572.692-1.02.924-.448.224-.98.336-1.596.336zm4.012-4.284c0-.824.184-1.56.552-2.208a3.985 3.985 0 011.524-1.524c.648-.368 1.372-.552 2.172-.552.936 0 1.756.24 2.46.72s1.196 1.144 1.476 1.992h-1.932c-.192-.4-.464-.7-.816-.9-.344-.2-.744-.3-1.2-.3a2.484 2.484 0 00-1.308.348 2.342 2.342 0 00-.888.96c-.208.416-.312.904-.312 1.464 0 .552.104 1.04.312 1.464.216.416.512.74.888.972.384.224.82.336 1.308.336.456 0 .856-.1 1.2-.3.352-.208.624-.512.816-.912h1.932c-.28.856-.772 1.524-1.476 2.004-.696.472-1.516.708-2.46.708-.8 0-1.524-.18-2.172-.54a4.097 4.097 0 01-1.524-1.524c-.368-.648-.552-1.384-.552-2.208zm13.939 4.2l-1.848-3.264h-.792v3.264h-1.68v-8.376h3.144c.648 0 1.2.116 1.656.348.456.224.796.532 1.02.924.232.384.348.816.348 1.296a2.525 2.525 0 01-.48 1.5c-.32.44-.796.744-1.428.912l2.004 3.396h-1.944zm-2.64-4.524h1.404c.456 0 .796-.108 1.02-.324.224-.224.336-.532.336-.924 0-.384-.112-.68-.336-.888-.224-.216-.564-.324-1.02-.324h-1.404v2.46zm7.688-3.852v8.376h-1.68v-8.376h1.68zm6.411 4.08c.472.088.86.324 1.164.708.304.384.456.824.456 1.32 0 .448-.112.844-.336 1.188-.216.336-.532.6-.948.792-.416.192-.908.288-1.476.288h-3.612v-8.376h3.456c.568 0 1.056.092 1.464.276.416.184.728.44.936.768.216.328.324.7.324 1.116 0 .488-.132.896-.396 1.224-.256.328-.6.56-1.032.696zm-3.072-.624h1.536c.4 0 .708-.088.924-.264.216-.184.324-.444.324-.78s-.108-.596-.324-.78c-.216-.184-.524-.276-.924-.276h-1.536v2.1zm1.692 3.552c.408 0 .724-.096.948-.288.232-.192.348-.464.348-.816 0-.36-.12-.64-.36-.84-.24-.208-.564-.312-.972-.312h-1.656v2.256h1.692zm6.019-5.652v2.1h2.82v1.332h-2.82v2.22h3.18v1.368h-4.86v-8.388h4.86v1.368h-3.18z" class="Vector_12"/>
        <path fill="#C4C4C4" d="M894.787 110.216c9.72 0 17.599-7.754 17.599-17.32s-7.879-17.32-17.599-17.32-17.599 7.755-17.599 17.32c0 9.566 7.879 17.32 17.599 17.32z" class="Vector_13"/>
        <path fill="#C4C4C4" d="M854.788 110.216c9.72 0 17.599-7.754 17.599-17.32s-7.879-17.32-17.599-17.32-17.599 7.755-17.599 17.32c0 9.566 7.879 17.32 17.599 17.32z" class="Vector_14"/>
        <path fill="#fff" d="M117.215 485.265l17.599-7.873v15.745l-17.599-7.872z" class="Vector_15"/>
        <path stroke="#fff" stroke-width="2.5" d="M113.665 476.965v17.32" class="Vector_16"/>
        <path stroke="#fff" stroke-width="2.5" d="M285.209 485.274h313.589" class="Vector_17"/>
        <path fill="#F4F4F4" d="M278.809 494.397c5.302 0 9.6-4.229 9.6-9.447 0-5.217-4.298-9.447-9.6-9.447s-9.6 4.23-9.6 9.447c0 5.218 4.298 9.447 9.6 9.447z" class="Vector_18"/>
        <path fill="#fff" d="M621.197 483.802l-17.6 7.872v-15.745l17.6 7.873z" class="Vector_19"/>
        <path stroke="#fff" stroke-width="2.5" d="M622.447 475.503v17.319" class="Vector_20"/>
        <g class="Group_5">
          <g class="Group_6">
            <path fill="#fff" d="M671.847 494.921h-3.602a1.014 1.014 0 01-.62-.208.939.939 0 01-.346-.534l-.403-1.78a8.086 8.086 0 01-1.519-.838l-1.817.553a1.037 1.037 0 01-.658-.019.982.982 0 01-.5-.409l-1.805-2.977a.921.921 0 01.191-1.17l1.41-1.229a7.322 7.322 0 010-1.674l-1.41-1.225a.942.942 0 01-.31-.554.908.908 0 01.119-.617l1.801-2.979a.982.982 0 01.5-.409c.21-.078.442-.084.658-.019l1.817.553c.242-.17.493-.329.752-.473.25-.134.508-.256.771-.364l.404-1.778a.94.94 0 01.345-.534c.176-.136.395-.209.62-.21h3.602c.225.001.444.074.62.21a.942.942 0 01.346.534l.407 1.779a8.086 8.086 0 011.519.838l1.818-.553c.215-.065.447-.058.658.019.208.076.384.22.499.409l1.801 2.979a.921.921 0 01-.191 1.17l-1.41 1.228a7.322 7.322 0 010 1.674l1.41 1.228c.341.301.42.786.191 1.171l-1.801 2.979a.975.975 0 01-.5.408c-.21.078-.442.085-.657.019l-1.818-.552a7.987 7.987 0 01-1.518.837l-.408 1.775a.947.947 0 01-.346.534 1.014 1.014 0 01-.62.208zm-1.805-13.225c-1.05 0-2.056.398-2.798 1.106a3.695 3.695 0 00-1.16 2.672 3.695 3.695 0 001.16 2.672 4.049 4.049 0 002.798 1.107c1.05 0 2.056-.398 2.799-1.107a3.68 3.68 0 001.159-2.672 3.695 3.695 0 00-1.159-2.672 4.057 4.057 0 00-2.799-1.106z" class="Vector_21"/>
          </g>
        </g>
        <g class="Group_7" filter="url(#filter0_f_133_73)">
          <path fill="#1E1E1E" d="M578.798 675.465l14.549 49.597H564.25l14.548-49.597z" class="Vector_22"/>
        </g>
        <g class="Group_8" filter="url(#filter1_i_133_73)">
          <path fill="#131313" d="M333.207 706.956h383.986v44.086H333.207v-44.086z" class="Vector_23"/>
        </g>
        <g class="Group_9" filter="url(#filter2_f_133_73)">
          <path fill="#1E1E1E" d="M481.202 675.466l14.549 49.597h-29.098l14.549-49.597z" class="Vector_24"/>
        </g>
        <path fill="#3B89FE" d="M21.6 19.186h1017v38.492H21.6V19.186z" class="Vector_25"/>
        <path fill="#111" stroke="#AAA" stroke-linejoin="round" d="M481.502 676.54h96.996v49.81h-96.996v-49.81z" class="Vector_26"/>
        <g class="Group_10" filter="url(#filter3_i_133_73)">
          <path fill="#131313" d="M333.207 706.956l58.195 44.283h-116.39l58.195-44.283z" class="Vector_27"/>
        </g>
        <g class="Group_11" filter="url(#filter4_i_133_73)">
          <path fill="#131313" d="M717.193 706.956l58.195 44.283h-116.39l58.195-44.283z" class="Vector_28"/>
        </g>
        <g class="Group_12">
          <g class="Group_13">
            <path fill="#000" d="M957.345 28.026c-.594 0-1.164.3-1.584.83-.42.532-.656 1.253-.656 2.005v5.668c0 .752.236 1.472.656 2.004.42.531.99.83 1.584.83h8.959c.594 0 1.164-.299 1.584-.83.42-.532.656-1.252.656-2.004V30.86c0-.752-.236-1.473-.656-2.004-.42-.532-.99-.83-1.584-.83h-8.959zm-1.12 2.835c0-.376.118-.737.328-1.002.21-.266.495-.416.792-.416h8.959c.297 0 .582.15.792.416.21.265.328.626.328 1.002v5.668c0 .376-.118.736-.328 1.002-.21.266-.495.415-.792.415h-8.959c-.297 0-.582-.15-.792-.415a1.624 1.624 0 01-.328-1.002V30.86v.001zm1.12 14.17V40.78h1.12v4.251c0 .376.118.736.328 1.002.21.266.495.415.792.415h13.439c.297 0 .582-.149.792-.415.21-.266.328-.626.328-1.002V33.695c0-.376-.118-.736-.328-1.002-.21-.266-.495-.415-.792-.415h-3.36V30.86h3.36c.594 0 1.164.298 1.584.83.42.531.656 1.252.656 2.004V45.03c0 .752-.236 1.473-.656 2.004-.42.532-.99.83-1.584.83h-13.439c-.594 0-1.164-.298-1.584-.83-.42-.531-.656-1.252-.656-2.004v.001z" class="Vector_29"/>
          </g>
        </g>
        <g class="Group_14">
          <g class="Group_15">
            <path fill="#000" fill-rule="evenodd" d="M1008.58 31.298c.06.064.11.14.15.223.03.084.05.174.05.264 0 .09-.02.18-.05.264a.879.879 0 01-.15.224l-15.401 15.155a.707.707 0 01-1.143-.223.687.687 0 01.152-.753l15.402-15.154a.662.662 0 01.49-.203c.19-.001.37.072.5.203z" class="Vector_30" clip-rule="evenodd"/>
            <path fill="#000" fill-rule="evenodd" d="M992.188 31.298a.686.686 0 000 .975l15.402 15.155a.707.707 0 00.99 0c.13-.13.2-.305.2-.488a.79.79 0 00-.05-.264.883.883 0 00-.15-.224l-15.401-15.154a.7.7 0 00-.764-.15.697.697 0 00-.227.15z" class="Vector_31" clip-rule="evenodd"/>
          </g>
        </g>
      </g>
      <g class="Group_16">
        <path fill="#FDFDFD" stroke="#AAA" d="M594 78.5H96a1.5 1.5 0 00-1.5 1.5v28a1.5 1.5 0 001.5 1.5h498a1.5 1.5 0 001.5-1.5V80a1.5 1.5 0 00-1.5-1.5z" class="Vector_32"/>
        <g class="Group_17">
          <g class="Group_18">
            <path fill="#999" d="M583.926 104.726l-7.627-7.5a8.111 8.111 0 01-5.642 1.395 8.045 8.045 0 01-5.114-2.73 7.791 7.791 0 01-1.884-5.41 7.809 7.809 0 012.338-5.238 8.074 8.074 0 015.327-2.3 8.093 8.093 0 015.505 1.852 7.838 7.838 0 012.777 5.027 7.778 7.778 0 01-1.418 5.548l7.627 7.5-1.887 1.855-.002.001zM571.659 85.56a5.397 5.397 0 00-3.371 1.178 5.239 5.239 0 00-1.858 3.005 5.17 5.17 0 00.489 3.483 5.303 5.303 0 002.616 2.398 5.424 5.424 0 003.569.237 5.336 5.336 0 002.919-2.032 5.182 5.182 0 00-.471-6.61l.807.787-.91-.892-.016-.016a5.307 5.307 0 00-1.73-1.14 5.38 5.38 0 00-2.044-.398z" class="Vector_33"/>
          </g>
        </g>
      </g>
    </g>
    <g class="layer 1">
      <g class="Group_19">
        <path fill="url(#paint0_linear_133_73)" stroke="#555" d="M27 119h1005v531H27V119z" class="Vector_34"/>
      </g>
    </g>
  </g>
  <defs>
    <filter id="filter0_f_133_73" width="33.097" height="53.597" x="562.25" y="673.465" class="filter0_f_133_73" color-interpolation-filters="sRGB" filterUnits="userSpaceOnUse">
      <feFlood flood-opacity="0" result="BackgroundImageFix"/>
      <feBlend in="SourceGraphic" in2="BackgroundImageFix" result="shape"/>
      <feGaussianBlur result="effect1_foregroundBlur_133_73" stdDeviation="1"/>
    </filter>
    <filter id="filter1_i_133_73" width="383.986" height="48.086" x="333.207" y="706.956" class="filter1_i_133_73" color-interpolation-filters="sRGB" filterUnits="userSpaceOnUse">
      <feFlood flood-opacity="0" result="BackgroundImageFix"/>
      <feBlend in="SourceGraphic" in2="BackgroundImageFix" result="shape"/>
      <feColorMatrix in="SourceAlpha" result="hardAlpha" values="0 0 0 0 0 0 0 0 0 0 0 0 0 0 0 0 0 0 127 0"/>
      <feOffset dy="5"/>
      <feGaussianBlur stdDeviation="2"/>
      <feComposite in2="hardAlpha" k2="-1" k3="1" operator="arithmetic"/>
      <feColorMatrix values="0 0 0 0 0 0 0 0 0 0 0 0 0 0 0 0 0 0 0.5 0"/>
      <feBlend in2="shape" result="effect1_innerShadow_133_73"/>
    </filter>
    <filter id="filter2_f_133_73" width="33.098" height="53.597" x="464.653" y="673.466" class="filter2_f_133_73" color-interpolation-filters="sRGB" filterUnits="userSpaceOnUse">
      <feFlood flood-opacity="0" result="BackgroundImageFix"/>
      <feBlend in="SourceGraphic" in2="BackgroundImageFix" result="shape"/>
      <feGaussianBlur result="effect1_foregroundBlur_133_73" stdDeviation="1"/>
    </filter>
    <filter id="filter3_i_133_73" width="116.39" height="48.283" x="275.012" y="706.956" class="filter3_i_133_73" color-interpolation-filters="sRGB" filterUnits="userSpaceOnUse">
      <feFlood flood-opacity="0" result="BackgroundImageFix"/>
      <feBlend in="SourceGraphic" in2="BackgroundImageFix" result="shape"/>
      <feColorMatrix in="SourceAlpha" result="hardAlpha" values="0 0 0 0 0 0 0 0 0 0 0 0 0 0 0 0 0 0 127 0"/>
      <feOffset dy="5"/>
      <feGaussianBlur stdDeviation="2"/>
      <feComposite in2="hardAlpha" k2="-1" k3="1" operator="arithmetic"/>
      <feColorMatrix values="0 0 0 0 0 0 0 0 0 0 0 0 0 0 0 0 0 0 0.4 0"/>
      <feBlend in2="shape" result="effect1_innerShadow_133_73"/>
    </filter>
    <filter id="filter4_i_133_73" width="116.39" height="48.283" x="658.998" y="706.956" class="filter4_i_133_73" color-interpolation-filters="sRGB" filterUnits="userSpaceOnUse">
      <feFlood flood-opacity="0" result="BackgroundImageFix"/>
      <feBlend in="SourceGraphic" in2="BackgroundImageFix" result="shape"/>
      <feColorMatrix in="SourceAlpha" result="hardAlpha" values="0 0 0 0 0 0 0 0 0 0 0 0 0 0 0 0 0 0 127 0"/>
      <feOffset dy="5"/>
      <feGaussianBlur stdDeviation="2"/>
      <feComposite in2="hardAlpha" k2="-1" k3="1" operator="arithmetic"/>
      <feColorMatrix values="0 0 0 0 0 0 0 0 0 0 0 0 0 0 0 0 0 0 0.4 0"/>
      <feBlend in2="shape" result="effect1_innerShadow_133_73"/>
    </filter>
    <linearGradient id="paint0_linear_133_73" x1="529.501" x2="529.501" y1="119" y2="650" class="paint0_linear_133_73" gradientUnits="userSpaceOnUse">
      <stop/>
      <stop offset="1" stop-color="#010101" stop-opacity=".85"/>
    </linearGradient>
  </defs>
</svg>
