<svg xmlns="http://www.w3.org/2000/svg" width="1057" height="766" fill="none" viewBox="0 0 1057 766">
  <g class="screen">
    <g class="monitor-body">
      <mask id="a" fill="#fff" class="path-1-inside-1_54_110">
        <rect width="1057" height="677.04" rx="10"/>
      </mask>
      <rect width="1057" height="677.04" fill="#FDFDFD" stroke="#000" stroke-width="40" mask="url(#a)" rx="10"/>
    </g>
    <g class="3lines">
      <path stroke="#ADADAD" stroke-width="2" d="M41.639 80.875h28.828" class="Line 1"/>
      <path stroke="#ADADAD" stroke-width="2" d="M41.639 91.109h28.828" class="Line 2"/>
      <path stroke="#ADADAD" stroke-width="2" d="M41.639 101.343h28.828" class="Line 3"/>
    </g>
    <g class="sideScreen">
      <g class="captyoutube2">
        <path fill="#A4A4A4" d="M924.074 258.22h80.076v9.097h-80.076zM924.074 274.14h80.076v9.097h-80.076zM924.074 290.06h33.365v9.097h-33.365z"/>
      </g>
      <g class="captyoutube1">
        <path fill="#A4A4A4" d="M924.074 138.557h80.076v9.552h-80.076zM924.074 154.25h80.076v9.552h-80.076zM924.074 169.942h60.057v9.552h-60.057z"/>
      </g>
      <g class="preview">
        <path fill="#121224" d="M747.907 138.557h168.159v110.216H747.907z" class="Rectangle 36"/>
        <g class="playButton">
          <ellipse cx="834.272" cy="192.669" fill="#FF5449" class="Ellipse 5" rx="18.345" ry="17.634"/>
          <path fill="#fff" d="M844.056 192.669l-17.122 8.818v-17.635l17.122 8.817z" class="Polygon 2"/>
        </g>
      </g>
      <g class="preview_2">
        <path fill="#121224" d="M747.907 258.22h168.159v110.216H747.907z" class="Rectangle 36_2"/>
        <g class="playButton_2">
          <ellipse cx="834.272" cy="312.333" fill="#FF5449" class="Ellipse 5_2" rx="18.345" ry="17.634"/>
          <path fill="#fff" d="M844.056 312.332l-17.122 8.818v-17.635l17.122 8.817z" class="Polygon 2_2"/>
        </g>
      </g>
      <g class="preview_3">
        <path fill="#121224" d="M747.907 377.883h168.159v110.216H747.907z" class="Rectangle 36_3"/>
        <g class="playButton_3">
          <ellipse cx="834.272" cy="431.995" fill="#FF5449" class="Ellipse 5_3" rx="18.345" ry="17.634"/>
          <path fill="#fff" d="M844.056 431.995l-17.122 8.817v-17.634l17.122 8.817z" class="Polygon 2_3"/>
        </g>
      </g>
      <g class="preview_4">
        <path fill="#121224" d="M747.907 497.546h168.159v110.216H747.907z" class="Rectangle 36_4"/>
        <g class="playButton_4">
          <ellipse cx="834.272" cy="551.658" fill="#FF5449" class="Ellipse 5_4" rx="18.345" ry="17.634"/>
          <path fill="#fff" d="M844.056 551.658l-17.122 8.817v-17.634l17.122 8.817z" class="Polygon 2_4"/>
        </g>
      </g>
      <g class="captyoutube2_2">
        <path fill="#A4A4A4" d="M924.074 377.883h80.076v9.097h-80.076zM924.074 393.803h80.076v9.097h-80.076zM924.074 409.723h48.045v9.097h-48.045z"/>
      </g>
      <g class="captyoutube2_3">
        <path fill="#A4A4A4" d="M924.074 499.12h80.076v9.097h-80.076zM924.074 515.04h80.076v9.097h-80.076zM924.074 530.96h16.015v9.097h-16.015z"/>
      </g>
      <path stroke="#949494" d="M735.095 125.961h280.265v497.546H735.095z" class="Rectangle 37"/>
    </g>
    <g class="main-play-button">
      <path fill="#121224" d="M91.286 127.535h624.591v390.479H91.286z" class="Rectangle 33"/>
      <ellipse cx="403.582" cy="314.902" fill="#FF5449" class="Ellipse 4" rx="32.03" ry="31.49"/>
      <path fill="#FEFFEF" d="M421.198 314.902l-28.827 16.363v-32.726l28.827 16.363z" class="Polygon 1"/>
    </g>
    <g class="expand">
      <path fill="#fff" d="M690.266 477.126h-4.167c-.332 0-.6.264-.6.591v4.133c0 .162.135.295.3.295h.901c.165 0 .3-.133.3-.295v-3.248h3.266c.165 0 .3-.133.3-.295v-.886a.299.299 0 00-.3-.295zm10.847 10.628h-.901c-.165 0-.3.133-.3.295v3.248h-3.265a.299.299 0 00-.301.295v.886c0 .162.135.295.301.295h4.166a.596.596 0 00.601-.591v-4.133a.3.3 0 00-.301-.295zm-10.847 3.543H687v-3.248a.299.299 0 00-.3-.295h-.901c-.165 0-.3.133-.3.295v4.133c0 .327.268.591.6.591h4.167c.165 0 .3-.133.3-.295v-.886a.299.299 0 00-.3-.295zm10.547-14.171h-4.166a.299.299 0 00-.301.295v.886c0 .162.135.295.301.295h3.265v3.248c0 .162.135.295.3.295h.901a.3.3 0 00.301-.295v-4.133a.596.596 0 00-.601-.591z" class="Vector"/>
    </g>
    <path fill="#C4C4C4" d="M275 750h498v16H275z" class="Rectangle 42"/>
    <rect width="623.591" height="33.639" x="91.786" y="76.077" fill="#FDFDFD" stroke="#AAA" class="input-search" rx="1.5"/>
    <g class="uninteractive">
      <ellipse cx="116.11" cy="608.549" fill="#389A42" class="Ellipse 11" rx="18.417" ry="18.107"/>
      <path fill="#fff" d="M119.283 603.159v1.302h-4.13v2.87h3.22v1.302h-3.22v4.256h-1.596v-9.73h5.726z" class="F"/>
      <path fill="#242424" d="M167.504 601.827h-3.434v3.615h-1.482v-8.531h5.42v1.195h-3.938v2.537h3.434v1.184zm4.711-1.424a3.556 3.556 0 00-.58-.047c-.653 0-1.092.25-1.319.75v4.336h-1.423v-6.34h1.359l.035.709c.344-.551.82-.826 1.43-.826.203 0 .371.027.504.082l-.006 1.336zm2.414 5.039h-1.424v-6.34h1.424v6.34zm-1.512-7.986c0-.219.069-.401.205-.545.141-.145.34-.217.598-.217.258 0 .457.072.598.217.14.144.211.326.211.545a.747.747 0 01-.211.539c-.141.14-.34.211-.598.211-.258 0-.457-.071-.598-.211a.76.76 0 01-.205-.539zm6.621 6.263a.644.644 0 00-.316-.58c-.207-.133-.553-.25-1.037-.351a5.367 5.367 0 01-1.213-.387c-.711-.344-1.066-.842-1.066-1.494 0-.547.23-1.004.691-1.371.461-.368 1.047-.551 1.758-.551.758 0 1.369.187 1.834.562.468.375.703.862.703 1.459h-1.424c0-.273-.102-.5-.305-.679-.203-.184-.472-.276-.808-.276-.313 0-.569.073-.768.217a.687.687 0 00-.293.58c0 .219.092.389.276.51.183.121.554.244 1.113.369.558.121.996.268 1.312.44.321.167.557.371.709.609.157.238.235.527.235.867 0 .57-.237 1.033-.709 1.389-.473.351-1.092.527-1.858.527-.519 0-.982-.094-1.388-.281a2.284 2.284 0 01-.95-.774 1.832 1.832 0 01-.339-1.06h1.382c.02.336.147.596.381.779.235.18.545.27.932.27.375 0 .66-.071.855-.211a.669.669 0 00.293-.563zm4.705-.996l-.632.651v2.068h-1.424v-9h1.424v5.191l.445-.556 1.752-1.975h1.711l-2.356 2.643 2.608 3.697h-1.647l-1.881-2.719zm7.998 2.719c-.062-.121-.117-.318-.164-.592a2.214 2.214 0 01-1.664.709c-.636 0-1.156-.182-1.558-.545a1.74 1.74 0 01-.604-1.347c0-.676.25-1.194.75-1.553.504-.364 1.223-.545 2.156-.545h.874v-.416c0-.328-.092-.59-.276-.785-.183-.2-.463-.299-.838-.299-.324 0-.59.082-.797.246a.744.744 0 00-.31.615h-1.424c0-.347.115-.672.346-.972.23-.305.543-.543.937-.715a3.325 3.325 0 011.33-.258c.742 0 1.334.187 1.776.562.441.371.668.895.679 1.571v2.859c0 .57.08 1.025.241 1.365v.1h-1.454zm-1.564-1.025c.281 0 .545-.069.791-.206.25-.136.438-.32.563-.55v-1.196h-.768c-.527 0-.924.092-1.19.276a.892.892 0 00-.398.779c0 .273.09.492.27.656.183.16.427.241.732.241zm13.904-1.752c-.086.91-.422 1.621-1.008 2.132-.585.508-1.365.762-2.337.762-.68 0-1.28-.16-1.799-.48-.516-.325-.914-.784-1.196-1.377-.281-.594-.427-1.284-.439-2.069v-.797c0-.804.143-1.513.428-2.127.285-.613.693-1.085 1.224-1.417.535-.333 1.153-.499 1.852-.499.941 0 1.699.256 2.273.768.575.512.909 1.234 1.002 2.168h-1.476c-.071-.613-.25-1.055-.539-1.324-.285-.274-.705-.41-1.26-.41-.645 0-1.141.236-1.488.709-.344.468-.52 1.158-.528 2.068v.756c0 .922.164 1.625.492 2.109.332.485.817.727 1.454.727.582 0 1.019-.131 1.312-.393.293-.262.479-.697.557-1.306h1.476zm4.981 2.777c-.063-.121-.117-.318-.164-.592a2.215 2.215 0 01-1.664.709c-.637 0-1.157-.182-1.559-.545a1.743 1.743 0 01-.603-1.347c0-.676.25-1.194.75-1.553.503-.364 1.222-.545 2.156-.545h.873v-.416c0-.328-.092-.59-.276-.785-.183-.2-.462-.299-.837-.299-.325 0-.59.082-.797.246a.745.745 0 00-.311.615h-1.424c0-.347.116-.672.346-.972.23-.305.543-.543.937-.715a3.326 3.326 0 011.331-.258c.742 0 1.334.187 1.775.562.441.371.668.895.68 1.571v2.859c0 .57.08 1.025.24 1.365v.1h-1.453zm-1.565-1.025c.282 0 .545-.069.791-.206.25-.136.438-.32.563-.55v-1.196h-.768c-.527 0-.924.092-1.189.276a.89.89 0 00-.399.779c0 .273.09.492.27.656.183.16.428.241.732.241zm5.672-4.624a2.229 2.229 0 011.764-.808c1.351 0 2.037.771 2.056 2.314v4.143h-1.423v-4.09c0-.437-.096-.746-.287-.926-.188-.183-.465-.275-.832-.275-.571 0-.997.254-1.278.762v4.529h-1.424v-9h1.424v3.351zm7.483 3.61l1.289-4.301h1.517l-2.519 7.301c-.387 1.066-1.043 1.599-1.969 1.599-.207 0-.436-.035-.686-.105v-1.102l.27.018c.359 0 .629-.066.809-.199.183-.129.328-.348.433-.656l.205-.545-2.226-6.311h1.535l1.342 4.301zm7.324 2.039c-.063-.121-.117-.318-.164-.592a2.215 2.215 0 01-1.664.709c-.637 0-1.157-.182-1.559-.545a1.743 1.743 0 01-.603-1.347c0-.676.25-1.194.75-1.553.503-.364 1.222-.545 2.156-.545h.873v-.416c0-.328-.092-.59-.276-.785-.183-.2-.462-.299-.837-.299-.325 0-.59.082-.797.246a.745.745 0 00-.311.615h-1.424c0-.347.116-.672.346-.972.231-.305.543-.543.938-.715a3.318 3.318 0 011.33-.258c.742 0 1.334.187 1.775.562.441.371.668.895.68 1.571v2.859c0 .57.08 1.025.24 1.365v.1h-1.453zm-1.565-1.025c.282 0 .545-.069.791-.206.25-.136.438-.32.563-.55v-1.196h-.768c-.527 0-.924.092-1.189.276a.89.89 0 00-.399.779c0 .273.09.492.27.656.184.16.428.241.732.241z" class="Friska Cahya"/>
      <path fill="#000" d="M164.088 624.059h-.727v-4.816l-1.457.535v-.656l2.071-.778h.113v5.715zm2.449-2.851l.289-2.836h2.914v.668h-2.3l-.172 1.551c.278-.164.595-.247.949-.247.518 0 .93.172 1.234.516.305.341.457.803.457 1.387 0 .586-.159 1.048-.476 1.387-.315.335-.757.503-1.324.503-.503 0-.913-.139-1.231-.418-.318-.278-.499-.664-.543-1.156h.684c.044.326.16.572.347.739.188.164.435.246.743.246.335 0 .598-.115.789-.344.192-.229.289-.546.289-.949 0-.381-.105-.685-.313-.914-.206-.232-.48-.348-.824-.348-.315 0-.563.069-.742.207l-.192.156-.578-.148zm4.25 2.472c0-.125.037-.229.11-.312.075-.083.187-.125.336-.125.148 0 .26.042.335.125a.434.434 0 01.118.312c0 .12-.039.22-.118.301-.075.081-.187.121-.335.121-.149 0-.261-.04-.336-.121a.433.433 0 01-.11-.301zm4.395.379h-.727v-4.816l-1.457.535v-.656l2.07-.778h.114v5.715zm4.492 0h-.727v-4.816l-1.457.535v-.656l2.071-.778h.113v5.715zm3.75-2.644l-.695.722v1.922h-.75v-5.687h.75v2.812l2.527-2.812h.906l-2.238 2.512 2.414 3.175h-.898l-2.016-2.644zm7.23.109c-.643-.185-1.112-.411-1.406-.68a1.308 1.308 0 01-.437-1c0-.447.178-.817.535-1.109.359-.294.825-.441 1.398-.441.391 0 .739.075 1.043.226.308.151.544.36.711.625.169.266.254.556.254.871h-.754c0-.343-.109-.613-.328-.808-.219-.198-.527-.297-.926-.297-.37 0-.659.082-.867.246-.206.161-.309.387-.309.676 0 .232.098.428.293.59.198.158.533.304 1.004.437.474.133.844.28 1.11.442.268.158.466.345.593.558.131.214.196.465.196.754 0 .461-.18.831-.539 1.109-.36.276-.84.414-1.442.414-.39 0-.755-.074-1.093-.222a1.872 1.872 0 01-.786-.617 1.512 1.512 0 01-.273-.887h.754c0 .344.126.616.379.816.255.198.595.297 1.019.297.396 0 .7-.081.91-.242a.787.787 0 00.317-.66c0-.279-.098-.494-.293-.645-.195-.153-.55-.304-1.063-.453zm5.571 2.117c-.282.331-.694.496-1.239.496-.45 0-.794-.13-1.031-.39-.234-.263-.353-.651-.355-1.164v-2.75h.722v2.73c0 .641.261.961.782.961.552 0 .919-.206 1.101-.617v-3.074h.723v4.226h-.688l-.015-.418zm5.383-1.648c0 .646-.149 1.165-.446 1.559-.297.39-.695.585-1.195.585-.534 0-.947-.188-1.238-.566l-.036.488h-.664v-6h.723v2.239c.292-.362.694-.543 1.207-.543.513 0 .915.194 1.207.582.294.388.442.919.442 1.593v.063zm-.723-.082c0-.492-.095-.873-.285-1.141-.19-.268-.464-.402-.821-.402-.476 0-.819.221-1.027.664v1.828c.221.443.566.664 1.035.664.347 0 .616-.134.809-.402.193-.268.289-.672.289-1.211zm4.098 1.027a.527.527 0 00-.223-.453c-.146-.109-.402-.203-.77-.281a3.697 3.697 0 01-.871-.281 1.267 1.267 0 01-.476-.391.94.94 0 01-.153-.539c0-.346.146-.639.438-.879.294-.24.669-.359 1.125-.359.479 0 .867.123 1.164.371.299.247.449.564.449.949h-.726a.652.652 0 00-.254-.512.94.94 0 00-.633-.215c-.263 0-.469.058-.617.172a.541.541 0 00-.223.449.44.44 0 00.207.395c.138.089.387.173.746.254.362.081.655.177.879.289.224.112.389.247.496.406.11.156.164.348.164.574 0 .378-.151.681-.453.911-.302.226-.694.339-1.176.339-.338 0-.638-.059-.898-.179a1.48 1.48 0 01-.613-.5 1.224 1.224 0 01-.219-.699h.722c.013.242.11.434.29.578.182.14.421.211.718.211.274 0 .492-.055.657-.164a.516.516 0 00.25-.446zm3.707-2.457a2.201 2.201 0 00-.356-.027c-.474 0-.795.202-.965.605v3h-.722v-4.226h.703l.011.488c.237-.378.573-.566 1.008-.566a.75.75 0 01.321.054v.672zm1.453 3.578h-.723v-4.226h.723v4.226zm-.782-5.347c0-.118.036-.216.106-.297.073-.081.18-.121.32-.121.141 0 .248.04.321.121a.43.43 0 01.109.297.417.417 0 01-.109.293c-.073.078-.18.117-.321.117-.14 0-.247-.039-.32-.117a.424.424 0 01-.106-.293zm5.52 3.281c0 .646-.148 1.165-.445 1.559-.297.39-.696.585-1.196.585-.534 0-.946-.188-1.238-.566l-.035.488h-.664v-6h.723v2.239c.291-.362.694-.543 1.207-.543.513 0 .915.194 1.207.582.294.388.441.919.441 1.593v.063zm-.723-.082c0-.492-.095-.873-.285-1.141-.19-.268-.463-.402-.82-.402-.477 0-.819.221-1.027.664v1.828c.221.443.566.664 1.035.664.346 0 .616-.134.808-.402.193-.268.289-.672.289-1.211zm3.391 2.226c-.573 0-1.039-.187-1.398-.562-.36-.378-.54-.882-.54-1.512v-.133c0-.419.08-.793.239-1.121.161-.33.385-.588.672-.773.289-.188.601-.281.937-.281.55 0 .977.181 1.281.543.305.362.457.88.457 1.554v.301h-2.863c.011.417.132.754.363 1.012.235.255.532.383.891.383.255 0 .471-.052.648-.157.178-.104.332-.242.465-.414l.442.344c-.354.544-.886.816-1.594.816zm-.09-3.789a.96.96 0 00-.734.321c-.198.211-.321.508-.367.89h2.117v-.054c-.021-.368-.12-.651-.297-.852-.177-.203-.417-.305-.719-.305zm4.621.133a2.189 2.189 0 00-.355-.027c-.474 0-.796.202-.965.605v3h-.723v-4.226h.703l.012.488c.237-.378.573-.566 1.008-.566.141 0 .247.018.32.054v.672zm3.129 2.457a.525.525 0 00-.223-.453c-.145-.109-.402-.203-.769-.281a3.681 3.681 0 01-.871-.281 1.263 1.263 0 01-.477-.391.948.948 0 01-.152-.539c0-.346.146-.639.437-.879.295-.24.67-.359 1.125-.359.48 0 .868.123 1.164.371.3.247.45.564.45.949h-.727a.652.652 0 00-.254-.512.936.936 0 00-.633-.215c-.263 0-.468.058-.617.172a.543.543 0 00-.222.449.44.44 0 00.207.395c.138.089.386.173.746.254.362.081.655.177.879.289.224.112.389.247.496.406a.979.979 0 01.164.574c0 .378-.151.681-.453.911-.302.226-.694.339-1.176.339-.339 0-.638-.059-.899-.179a1.492 1.492 0 01-.613-.5 1.224 1.224 0 01-.219-.699h.723a.757.757 0 00.289.578c.182.14.422.211.719.211.273 0 .492-.055.656-.164a.514.514 0 00.25-.446z" class="15.11K Subsribers"/>
      <path stroke="#000" d="M919.249 45.948h20.819" class="Line 9"/>
      <path fill="#000" d="M109.564 563.505h-.817v-5.419l-1.639.602v-.738l2.329-.874h.127v6.429zm2.756-3.208l.325-3.191h3.278v.752h-2.588l-.194 1.744c.314-.184.67-.276 1.068-.276.583 0 1.046.193 1.389.58.343.383.514.903.514 1.56 0 .659-.179 1.179-.536 1.56-.355.378-.851.567-1.49.567-.565 0-1.027-.157-1.384-.471-.358-.313-.561-.747-.611-1.3h.769c.05.366.18.643.391.83.211.185.489.277.835.277.378 0 .674-.129.888-.387.217-.257.325-.613.325-1.068 0-.427-.117-.77-.352-1.028-.231-.261-.54-.391-.927-.391-.354 0-.633.078-.835.233l-.215.176-.65-.167zm7.352 3.208h-.818v-5.419l-1.639.602v-.738l2.329-.874h.128v6.429zm2.439 1.274l-.462-.316c.275-.384.419-.78.431-1.187v-.734h.795v.638c0 .295-.073.591-.22.887a2.058 2.058 0 01-.544.712zm4.381-1.274h-.818v-5.419l-1.639.602v-.738l2.329-.874h.128v6.429zm6.394-2.729c0 .952-.163 1.659-.488 2.122-.325.463-.833.695-1.525.695-.682 0-1.188-.226-1.516-.677-.328-.454-.498-1.131-.51-2.03V559.8c0-.94.163-1.639.488-2.096.325-.457.835-.686 1.529-.686.689 0 1.196.222 1.521.664.325.439.492 1.119.501 2.039v1.055zm-.813-1.112c0-.689-.097-1.19-.29-1.503-.193-.316-.5-.475-.919-.475-.416 0-.719.157-.909.471-.191.313-.289.795-.295 1.445v1.301c0 .692.1 1.203.299 1.534.202.328.507.492.914.492.402 0 .699-.155.892-.466.197-.31.299-.8.308-1.468v-1.331zm4.526 3.841h-.817v-5.419l-1.639.602v-.738l2.329-.874h.127v6.429zm6.267-1.103l1.178-3.652h.83l-1.705 4.755h-.62l-1.722-4.755h.83l1.209 3.652zm3.674 1.103h-.813v-4.755h.813v4.755zm-.879-6.016c0-.132.039-.244.118-.334.083-.091.203-.137.361-.137.158 0 .278.046.36.137.082.09.123.202.123.334a.465.465 0 01-.123.329c-.082.088-.202.132-.36.132-.158 0-.278-.044-.361-.132a.474.474 0 01-.118-.329zm4.157 6.104c-.644 0-1.169-.211-1.573-.633-.404-.425-.607-.992-.607-1.701v-.149c0-.472.09-.892.268-1.261.182-.373.434-.663.756-.871a1.9 1.9 0 011.055-.316c.618 0 1.099.204 1.441.611.343.407.515.99.515 1.749v.338h-3.222c.012.469.148.848.409 1.138a1.3 1.3 0 001.002.431c.287 0 .53-.059.729-.176.2-.117.374-.272.523-.466l.497.387c-.398.612-.996.919-1.793.919zm-.101-4.263c-.328 0-.604.12-.826.36-.223.238-.361.572-.413 1.002h2.382v-.061c-.024-.413-.135-.733-.334-.958-.2-.229-.469-.343-.809-.343zm7.11 3.054l.914-3.634h.813l-1.384 4.755h-.659l-1.156-3.604-1.125 3.604h-.659l-1.38-4.755H153l.936 3.559 1.107-3.559h.655l1.129 3.634zm5.327-.14c0-.22-.084-.39-.251-.51-.164-.123-.453-.229-.866-.317-.41-.088-.737-.193-.98-.316a1.416 1.416 0 01-.536-.44 1.06 1.06 0 01-.171-.606c0-.39.164-.719.492-.989.331-.269.753-.404 1.266-.404.539 0 .975.139 1.309.417.337.279.506.635.506 1.068h-.818c0-.222-.095-.414-.285-.575a1.056 1.056 0 00-.712-.242c-.296 0-.528.064-.695.193a.61.61 0 00-.25.506c0 .196.077.344.233.444.155.099.435.194.839.285.407.091.737.199.989.325s.438.279.558.457a1.1 1.1 0 01.184.646c0 .425-.169.767-.509 1.024-.34.255-.781.383-1.323.383-.381 0-.718-.068-1.011-.202a1.67 1.67 0 01-.69-.563 1.379 1.379 0 01-.246-.787H160c.015.273.123.49.325.651.205.158.475.237.809.237.308 0 .554-.061.738-.184a.578.578 0 00.282-.501zm1.845 2.535l-.461-.316c.275-.384.419-.78.43-1.187v-.734h.796v.638c0 .295-.073.591-.22.887a2.048 2.048 0 01-.545.712zm4.997-3.779v2.505h-.844v-6.399h2.36c.7 0 1.248.179 1.643.536.399.358.598.831.598 1.42 0 .621-.195 1.1-.584 1.437-.387.334-.942.501-1.666.501h-1.507zm0-.69h1.516c.451 0 .797-.106 1.037-.316.24-.214.36-.522.36-.923 0-.381-.12-.686-.36-.914-.24-.229-.57-.348-.989-.356h-1.564v2.509zm7.005-.831a2.503 2.503 0 00-.4-.03c-.533 0-.895.227-1.086.681v3.375h-.813v-4.755h.791l.014.549c.266-.425.644-.637 1.133-.637.159 0 .279.02.361.062v.755zm2.636 4.114c-.644 0-1.169-.211-1.573-.633-.404-.425-.606-.992-.606-1.701v-.149c0-.472.089-.892.268-1.261.181-.373.433-.663.756-.871a1.898 1.898 0 011.054-.316c.618 0 1.099.204 1.442.611.342.407.514.99.514 1.749v.338h-3.221c.011.469.148.848.408 1.138a1.3 1.3 0 001.002.431c.287 0 .531-.059.73-.176.199-.117.373-.272.523-.466l.496.387c-.398.612-.996.919-1.793.919zm-.101-4.263c-.328 0-.603.12-.826.36-.223.238-.36.572-.413 1.002h2.382v-.061c-.024-.413-.135-.733-.334-.958-.199-.229-.469-.343-.809-.343zm3.665-.58l.022.527c.349-.41.819-.615 1.411-.615.665 0 1.118.255 1.358.765.158-.229.363-.413.615-.554.255-.141.555-.211.901-.211 1.043 0 1.573.552 1.591 1.657v3.186h-.813v-3.138c0-.34-.078-.593-.233-.76-.155-.17-.416-.255-.782-.255-.302 0-.553.091-.752.272-.199.179-.315.421-.347.725v3.156h-.817v-3.116c0-.691-.339-1.037-1.015-1.037-.534 0-.898.227-1.095.681v3.472h-.813v-4.755h.769zm8.012 4.755h-.813v-4.755h.813v4.755zm-.879-6.016c0-.132.039-.244.118-.334.082-.091.202-.137.361-.137.158 0 .278.046.36.137.082.09.123.202.123.334a.465.465 0 01-.123.329c-.082.088-.202.132-.36.132-.159 0-.279-.044-.361-.132a.474.474 0 01-.118-.329zm4.157 6.104c-.645 0-1.169-.211-1.573-.633-.405-.425-.607-.992-.607-1.701v-.149c0-.472.09-.892.268-1.261.182-.373.434-.663.756-.871a1.9 1.9 0 011.055-.316c.618 0 1.098.204 1.441.611.343.407.514.99.514 1.749v.338h-3.221c.012.469.148.848.409 1.138a1.3 1.3 0 001.002.431c.287 0 .53-.059.729-.176.2-.117.374-.272.523-.466l.497.387c-.399.612-.996.919-1.793.919zm-.101-4.263c-.328 0-.604.12-.826.36-.223.238-.361.572-.413 1.002h2.381v-.061c-.023-.413-.134-.733-.334-.958-.199-.229-.468-.343-.808-.343zm5.199.149a2.503 2.503 0 00-.4-.03c-.534 0-.895.227-1.086.681v3.375h-.813v-4.755h.791l.013.549c.267-.425.645-.637 1.134-.637.158 0 .279.02.361.062v.755zm2.636 4.114c-.644 0-1.169-.211-1.573-.633-.404-.425-.606-.992-.606-1.701v-.149c0-.472.089-.892.268-1.261.181-.373.433-.663.756-.871a1.898 1.898 0 011.054-.316c.618 0 1.099.204 1.442.611.342.407.514.99.514 1.749v.338h-3.221c.011.469.148.848.408 1.138a1.3 1.3 0 001.002.431c.287 0 .53-.059.73-.176.199-.117.373-.272.523-.466l.496.387c-.398.612-.996.919-1.793.919zm-.101-4.263c-.328 0-.603.12-.826.36-.223.238-.36.572-.413 1.002h2.382v-.061c-.024-.413-.135-.733-.334-.958-.199-.229-.469-.343-.809-.343zm2.703 1.758c0-.73.173-1.316.518-1.758a1.64 1.64 0 011.358-.668c.557 0 .998.19 1.323.571v-2.478h.813v6.75h-.747l-.04-.51c-.325.398-.777.598-1.357.598-.551 0-1.001-.226-1.35-.677-.345-.451-.518-1.04-.518-1.767v-.061zm.813.092c0 .539.111.961.334 1.266.222.304.53.457.923.457.515 0 .892-.232 1.129-.695v-2.184c-.243-.448-.617-.672-1.121-.672-.398 0-.709.154-.931.461-.223.308-.334.764-.334 1.367zm6.825 2.325v-6.399h1.806c.556 0 1.049.123 1.476.369.428.247.758.597.989 1.051.234.454.353.975.356 1.564v.409c0 .603-.117 1.132-.352 1.586a2.44 2.44 0 01-.997 1.046c-.431.243-.933.368-1.507.374h-1.771zm.843-5.704v5.014h.888c.65 0 1.156-.202 1.516-.607.363-.404.545-.98.545-1.727v-.373c0-.727-.171-1.291-.514-1.692-.34-.404-.823-.609-1.45-.615h-.985zm6.908 5.792c-.644 0-1.168-.211-1.573-.633-.404-.425-.606-.992-.606-1.701v-.149c0-.472.089-.892.268-1.261.182-.373.433-.663.756-.871a1.898 1.898 0 011.054-.316c.619 0 1.099.204 1.442.611.343.407.514.99.514 1.749v.338h-3.221c.012.469.148.848.408 1.138a1.3 1.3 0 001.002.431c.288 0 .531-.059.73-.176.199-.117.373-.272.523-.466l.496.387c-.398.612-.996.919-1.793.919zm-.101-4.263c-.328 0-.603.12-.826.36-.222.238-.36.572-.413 1.002h2.382v-.061c-.023-.413-.135-.733-.334-.958-.199-.229-.469-.343-.809-.343zm4.808 3.599c.29 0 .543-.088.76-.264a.927.927 0 00.361-.659h.769a1.476 1.476 0 01-.282.778 1.847 1.847 0 01-.694.589 1.99 1.99 0 01-.914.22c-.647 0-1.163-.216-1.547-.646-.381-.434-.571-1.026-.571-1.776v-.136c0-.463.085-.874.255-1.235.17-.36.413-.64.729-.839.32-.199.696-.299 1.13-.299.533 0 .975.16 1.327.479.354.319.543.734.567 1.244h-.769a1.11 1.11 0 00-.352-.756 1.076 1.076 0 00-.773-.299c-.413 0-.734.149-.963.448-.225.296-.338.725-.338 1.288v.154c0 .547.113.969.338 1.265.226.296.548.444.967.444zm9.145.576h-4.192v-.585l2.215-2.461c.328-.372.553-.673.676-.905.126-.234.189-.476.189-.725 0-.334-.101-.608-.303-.822-.202-.214-.472-.321-.809-.321-.404 0-.719.116-.944.348-.223.228-.334.547-.334.958h-.813c0-.589.189-1.065.567-1.429.38-.363.889-.545 1.524-.545.595 0 1.065.157 1.411.471.346.31.519.725.519 1.243 0 .63-.402 1.38-1.204 2.25l-1.714 1.859h3.212v.664zm5.054 0h-4.193v-.585l2.215-2.461c.328-.372.554-.673.677-.905.126-.234.189-.476.189-.725 0-.334-.101-.608-.303-.822-.202-.214-.472-.321-.809-.321-.404 0-.719.116-.945.348-.222.228-.334.547-.334.958h-.813c0-.589.189-1.065.567-1.429.381-.363.889-.545 1.525-.545.595 0 1.065.157 1.411.471.345.31.518.725.518 1.243 0 .63-.401 1.38-1.204 2.25l-1.714 1.859h3.213v.664zm.918 1.274l-.461-.316c.275-.384.419-.78.43-1.187v-.734h.796v.638c0 .295-.073.591-.22.887a2.048 2.048 0 01-.545.712zm8.134-1.274h-4.192v-.585l2.215-2.461c.328-.372.554-.673.677-.905.126-.234.189-.476.189-.725 0-.334-.101-.608-.304-.822-.202-.214-.471-.321-.808-.321-.404 0-.719.116-.945.348-.223.228-.334.547-.334.958h-.813c0-.589.189-1.065.567-1.429.381-.363.889-.545 1.525-.545.595 0 1.065.157 1.411.471.345.31.518.725.518 1.243 0 .63-.401 1.38-1.204 2.25l-1.714 1.859h3.212v.664zm4.874-2.729c0 .952-.163 1.659-.488 2.122-.325.463-.833.695-1.525.695-.682 0-1.188-.226-1.516-.677-.328-.454-.498-1.131-.51-2.03V559.8c0-.94.163-1.639.488-2.096.325-.457.835-.686 1.53-.686.688 0 1.195.222 1.52.664.325.439.492 1.119.501 2.039v1.055zm-.813-1.112c0-.689-.097-1.19-.29-1.503-.193-.316-.5-.475-.918-.475-.416 0-.72.157-.91.471-.191.313-.289.795-.295 1.445v1.301c0 .692.1 1.203.299 1.534.202.328.507.492.914.492.402 0 .699-.155.892-.466.197-.31.299-.8.308-1.468v-1.331zm6.047 3.841h-4.192v-.585l2.214-2.461c.329-.372.554-.673.677-.905.126-.234.189-.476.189-.725 0-.334-.101-.608-.303-.822-.202-.214-.472-.321-.809-.321-.404 0-.719.116-.945.348-.222.228-.334.547-.334.958h-.813c0-.589.189-1.065.567-1.429.381-.363.89-.545 1.525-.545.595 0 1.065.157 1.411.471.346.31.518.725.518 1.243 0 .63-.401 1.38-1.204 2.25l-1.713 1.859h3.212v.664zm3.533 0h-.817v-5.419l-1.639.602v-.738l2.329-.874h.127v6.429z" class="151,101 views, Premiered Dec 22, 2021"/>
      <path stroke="red" stroke-width="2.5" d="M139.326 485.274h128.121" class="Line 4"/>
      <g class="carbon:closed-caption-filled">
        <path fill="#fff" d="M650.616 478.061H633.8c-.372 0-.728.145-.991.404a1.364 1.364 0 00-.411.974v11.021c0 .366.148.716.411.975.263.258.619.403.991.403h16.816c.371 0 .728-.145.99-.403.263-.259.411-.609.411-.975v-11.021c0-.366-.148-.716-.411-.974a1.409 1.409 0 00-.99-.404zm-9.109 4.822h-3.503v4.133h3.503v1.378h-3.503c-.372 0-.728-.145-.991-.404a1.364 1.364 0 01-.411-.974v-4.133c0-.365.148-.716.411-.974s.619-.404.991-.404h3.503v1.378zm7.007 0h-3.504v4.133h3.504v1.378h-3.504c-.371 0-.728-.145-.991-.404a1.367 1.367 0 01-.41-.974v-4.133c0-.365.148-.716.41-.974.263-.258.62-.404.991-.404h3.504v1.378z" class="Vector_2"/>
      </g>
      <ellipse cx="935.285" cy="92.896" fill="#C4C4C4" class="Ellipse 6" rx="17.617" ry="17.32"/>
      <g class="bi:three-dots">
        <g class="Group">
          <path fill="#111" d="M697.66 542.124a2.122 2.122 0 01-1.486-.605 2.05 2.05 0 01-.616-1.461c0-.549.222-1.074.616-1.462a2.122 2.122 0 011.486-.605 2.12 2.12 0 011.486.605c.395.388.616.913.616 1.462 0 .548-.221 1.073-.616 1.461a2.12 2.12 0 01-1.486.605zm7.007 0a2.125 2.125 0 01-1.487-.605 2.05 2.05 0 01-.615-1.461c0-.549.221-1.074.615-1.462a2.125 2.125 0 012.973 0c.394.388.616.913.616 1.462a2.05 2.05 0 01-.616 1.461 2.122 2.122 0 01-1.486.605zm7.006 0a2.122 2.122 0 01-1.486-.605 2.05 2.05 0 01-.616-1.461c0-.549.222-1.074.616-1.462a2.125 2.125 0 012.973 0c.394.388.615.913.615 1.462a2.05 2.05 0 01-.615 1.461 2.125 2.125 0 01-1.487.605z" class="Vector_3"/>
        </g>
      </g>
      <ellipse cx="997.744" cy="92.896" fill="#389A42" class="Ellipse 6_2" rx="17.617" ry="17.32"/>
      <path fill="#fff" d="M1001.38 88.336V89.5h-3.689v2.562h2.879v1.163h-2.879v3.8h-1.425v-8.688h5.114z" class="F_2"/>
      <rect width="176.167" height="31.49" x="539.711" y="593.591" fill="#FF5449" class="Rectangle 38" rx="5"/>
      <path fill="#fff" d="M598.994 613.25c-.584 0-1.112-.1-1.584-.3a2.597 2.597 0 01-1.104-.864c-.272-.376-.412-.82-.42-1.332h1.8c.024.344.144.616.36.816.224.2.528.3.912.3.392 0 .7-.092.924-.276a.935.935 0 00.336-.744.853.853 0 00-.228-.612 1.527 1.527 0 00-.576-.372 7.887 7.887 0 00-.936-.312c-.544-.16-.988-.316-1.332-.468a2.469 2.469 0 01-.876-.708c-.24-.32-.36-.744-.36-1.272 0-.496.124-.928.372-1.296a2.328 2.328 0 011.044-.84c.448-.2.96-.3 1.536-.3.864 0 1.564.212 2.1.636.544.416.844 1 .9 1.752h-1.848a.935.935 0 00-.372-.708c-.224-.192-.524-.288-.9-.288-.328 0-.592.084-.792.252-.192.168-.288.412-.288.732 0 .224.072.412.216.564.152.144.336.264.552.36.224.088.536.192.936.312.544.16.988.32 1.332.48.344.16.64.4.888.72.248.32.372.74.372 1.26 0 .448-.116.864-.348 1.248-.232.384-.572.692-1.02.924-.448.224-.98.336-1.596.336zm6.077-8.46v5.184c0 .568.148 1.004.444 1.308.296.296.712.444 1.248.444.544 0 .964-.148 1.26-.444.296-.304.444-.74.444-1.308v-5.184h1.692v5.172c0 .712-.156 1.316-.468 1.812a2.896 2.896 0 01-1.236 1.104 3.885 3.885 0 01-1.716.372 3.857 3.857 0 01-1.704-.372 2.851 2.851 0 01-1.2-1.104c-.296-.496-.444-1.1-.444-1.812v-5.172h1.68zm11.463 4.08c.472.088.86.324 1.164.708.304.384.456.824.456 1.32 0 .448-.112.844-.336 1.188-.216.336-.532.6-.948.792-.416.192-.908.288-1.476.288h-3.612v-8.376h3.456c.568 0 1.056.092 1.464.276.416.184.728.44.936.768.216.328.324.7.324 1.116 0 .488-.132.896-.396 1.224-.256.328-.6.56-1.032.696zm-3.072-.624h1.536c.4 0 .708-.088.924-.264.216-.184.324-.444.324-.78s-.108-.596-.324-.78c-.216-.184-.524-.276-.924-.276h-1.536v2.1zm1.692 3.552c.408 0 .724-.096.948-.288.232-.192.348-.464.348-.816 0-.36-.12-.64-.36-.84-.24-.208-.564-.312-.972-.312h-1.656v2.256h1.692zm7.231 1.452c-.584 0-1.112-.1-1.584-.3a2.597 2.597 0 01-1.104-.864c-.272-.376-.412-.82-.42-1.332h1.8c.024.344.144.616.36.816.224.2.528.3.912.3.392 0 .7-.092.924-.276a.935.935 0 00.336-.744.853.853 0 00-.228-.612 1.527 1.527 0 00-.576-.372 7.887 7.887 0 00-.936-.312c-.544-.16-.988-.316-1.332-.468a2.469 2.469 0 01-.876-.708c-.24-.32-.36-.744-.36-1.272 0-.496.124-.928.372-1.296a2.328 2.328 0 011.044-.84c.448-.2.96-.3 1.536-.3.864 0 1.564.212 2.1.636.544.416.844 1 .9 1.752h-1.848a.935.935 0 00-.372-.708c-.224-.192-.524-.288-.9-.288-.328 0-.592.084-.792.252-.192.168-.288.412-.288.732 0 .224.072.412.216.564.152.144.336.264.552.36.224.088.536.192.936.312.544.16.988.32 1.332.48.344.16.64.4.888.72.248.32.372.74.372 1.26 0 .448-.116.864-.348 1.248-.232.384-.572.692-1.02.924-.448.224-.98.336-1.596.336zm4.013-4.284c0-.824.184-1.56.552-2.208a3.984 3.984 0 011.524-1.524c.648-.368 1.372-.552 2.172-.552.936 0 1.756.24 2.46.72s1.196 1.144 1.476 1.992h-1.932c-.192-.4-.464-.7-.816-.9-.344-.2-.744-.3-1.2-.3a2.48 2.48 0 00-1.308.348 2.346 2.346 0 00-.888.96c-.208.416-.312.904-.312 1.464 0 .552.104 1.04.312 1.464.216.416.512.74.888.972.384.224.82.336 1.308.336.456 0 .856-.1 1.2-.3.352-.208.624-.512.816-.912h1.932c-.28.856-.772 1.524-1.476 2.004-.696.472-1.516.708-2.46.708-.8 0-1.524-.18-2.172-.54a4.097 4.097 0 01-1.524-1.524c-.368-.648-.552-1.384-.552-2.208zm13.938 4.2l-1.848-3.264h-.792v3.264h-1.68v-8.376h3.144c.648 0 1.2.116 1.656.348.456.224.796.532 1.02.924.232.384.348.816.348 1.296a2.52 2.52 0 01-.48 1.5c-.32.44-.796.744-1.428.912l2.004 3.396h-1.944zm-2.64-4.524h1.404c.456 0 .796-.108 1.02-.324.224-.224.336-.532.336-.924 0-.384-.112-.68-.336-.888-.224-.216-.564-.324-1.02-.324h-1.404v2.46zm7.688-3.852v8.376h-1.68v-8.376h1.68zm6.412 4.08c.472.088.86.324 1.164.708.304.384.456.824.456 1.32 0 .448-.112.844-.336 1.188-.216.336-.532.6-.948.792-.416.192-.908.288-1.476.288h-3.612v-8.376h3.456c.568 0 1.056.092 1.464.276.416.184.728.44.936.768.216.328.324.7.324 1.116 0 .488-.132.896-.396 1.224-.256.328-.6.56-1.032.696zm-3.072-.624h1.536c.4 0 .708-.088.924-.264.216-.184.324-.444.324-.78s-.108-.596-.324-.78c-.216-.184-.524-.276-.924-.276h-1.536v2.1zm1.692 3.552c.408 0 .724-.096.948-.288.232-.192.348-.464.348-.816 0-.36-.12-.64-.36-.84-.24-.208-.564-.312-.972-.312h-1.656v2.256h1.692zm6.019-5.652v2.1h2.82v1.332h-2.82v2.22h3.18v1.368h-4.86v-8.388h4.86v1.368h-3.18z" class="SUBSCRIBE"/>
      <ellipse cx="893.645" cy="92.896" fill="#C4C4C4" class="Ellipse 7" rx="17.617" ry="17.32"/>
      <ellipse cx="853.608" cy="92.896" fill="#C4C4C4" class="Ellipse 8" rx="17.617" ry="17.32"/>
      <path fill="#fff" d="M115.309 485.265l17.617-7.873v15.745l-17.617-7.872z" class="Polygon 2_5"/>
      <path stroke="#fff" stroke-width="2.5" d="M111.755 476.965v17.32" class="Line 5"/>
      <path stroke="#fff" stroke-width="2.5" d="M283.468 485.274h313.897" class="Line 6"/>
      <ellipse cx="277.062" cy="484.95" fill="#F4F4F4" class="Ellipse 9" rx="9.609" ry="9.447"/>
      <ellipse cx="277.062" cy="484.95" fill="red" class="Ellipse 10" opacity=".6" rx="4.805" ry="4.724"/>
      <path fill="#fff" d="M619.786 483.802l-17.616 7.872v-15.745l17.616 7.873z" class="Polygon 3"/>
      <path stroke="#fff" stroke-width="2.5" d="M621.036 475.503v17.319" class="Line 7"/>
      <g class="ci:settings-filled">
        <g class="Group_2">
          <path fill="#fff" d="M670.486 494.921h-3.605a1.014 1.014 0 01-.621-.208.938.938 0 01-.346-.534l-.404-1.78a8.083 8.083 0 01-1.52-.838l-1.819.553a1.04 1.04 0 01-.659-.019.981.981 0 01-.5-.409l-1.806-2.977a.91.91 0 01-.119-.617.93.93 0 01.31-.553l1.411-1.229a7.322 7.322 0 010-1.674l-1.411-1.225a.937.937 0 01-.311-.554.911.911 0 01.12-.617l1.802-2.979a.981.981 0 01.5-.409 1.04 1.04 0 01.659-.019l1.819.553a8.35 8.35 0 01.753-.473c.25-.134.508-.256.771-.364l.405-1.778a.935.935 0 01.346-.534c.175-.136.394-.209.62-.21h3.605c.226.001.445.074.621.21a.935.935 0 01.346.534l.408 1.779a8.094 8.094 0 011.52.838l1.821-.553a1.04 1.04 0 01.657.019.977.977 0 01.5.409l1.803 2.979a.92.92 0 01-.191 1.17l-1.412 1.228a7.21 7.21 0 010 1.674l1.412 1.228a.921.921 0 01.191 1.171l-1.803 2.979a.976.976 0 01-.5.408 1.03 1.03 0 01-.658.019l-1.82-.552a8.04 8.04 0 01-1.519.837l-.409 1.775a.943.943 0 01-.346.534 1.02 1.02 0 01-.621.208zm-1.806-13.225a4.065 4.065 0 00-2.802 1.106 3.693 3.693 0 00-1.16 2.672 3.69 3.69 0 001.16 2.672 4.06 4.06 0 002.802 1.107 4.06 4.06 0 002.801-1.107 3.69 3.69 0 001.16-2.672 3.693 3.693 0 00-1.16-2.672 4.064 4.064 0 00-2.801-1.106z" class="Vector_4"/>
        </g>
      </g>
      <g class="bx:bx-share">
        <path fill="#111" d="M675.306 536.436v-3.201c0-.279.112-.546.312-.743a1.078 1.078 0 011.503-.003l7.473 7.348a1.053 1.053 0 01.316.745 1.038 1.038 0 01-.316.746l-7.473 7.347a1.073 1.073 0 01-1.159.219 1.057 1.057 0 01-.476-.385 1.026 1.026 0 01-.18-.579v-3.254h-.908a11.796 11.796 0 00-4.9.986 11.607 11.607 0 00-4.026 2.919 1.071 1.071 0 01-1.718-.025 1.04 1.04 0 01-.193-.626c0-9.573 8.627-11.21 11.745-11.494zm-.908 6.12c.714-.002 1.428.043 2.135.136.253.038.484.163.65.354.167.191.258.434.258.685v1.669l4.89-4.818-4.89-4.818v1.669c0 .279-.113.546-.313.743a1.08 1.08 0 01-.755.307c-.971 0-8.659.21-10.324 6.749a14.113 14.113 0 018.349-2.676z" class="Vector_5"/>
      </g>
      <g class="ant-design:like-outlined">
        <path fill="#000" d="M617.932 540.591c.42-.546.653-1.215.653-1.911 0-1.105-.628-2.15-1.639-2.734a1.706 1.706 0 00-.858-.228h-6.001l.15-3.024a2.605 2.605 0 00-.738-1.953 2.673 2.673 0 00-1.949-.822c-1.302 0-2.453.861-2.798 2.094l-2.149 7.651h-3.236a.793.793 0 00-.801.787v8.955c0 .436.358.787.801.787h15.047c.23 0 .455-.044.663-.133a3.161 3.161 0 001.959-2.912c0-.31-.045-.615-.135-.911a3.132 3.132 0 00.518-2.821c.42-.547.653-1.216.653-1.912a3.318 3.318 0 00-.14-.913zm-17.564 7.831v-6.987h2.027v6.987h-2.027zm15.925-8.684l-.548.467.348.625a1.394 1.394 0 01-.318 1.729l-.548.468.348.625a1.394 1.394 0 01-.318 1.729l-.548.468.348.625c.114.205.174.437.172.671a1.4 1.4 0 01-.84 1.275h-10.393v-7.064l2.49-8.868c.064-.228.202-.428.393-.572.19-.143.423-.222.663-.223.19 0 .378.054.528.165a.868.868 0 01.366.75l-.241 4.881h7.868c.445.268.72.721.72 1.191a1.4 1.4 0 01-.49 1.058z" class="Vector_6"/>
      </g>
      <g class="ant-design:like-outlined_2">
        <path fill="#000" d="M651.564 541.098c.42.547.653 1.216.653 1.912 0 1.105-.628 2.15-1.639 2.733a1.72 1.72 0 01-.858.229h-6.001l.15 3.024a2.606 2.606 0 01-.738 1.953 2.703 2.703 0 01-1.949.822c-1.302 0-2.453-.861-2.798-2.094l-2.15-7.651h-3.235a.793.793 0 01-.801-.787v-8.955c0-.436.358-.788.801-.788h15.047c.23 0 .455.045.663.133a3.164 3.164 0 011.959 2.913c0 .31-.045.615-.135.91a3.135 3.135 0 01.518 2.822c.42.546.653 1.215.653 1.912-.005.31-.05.617-.14.912zM634 533.268v6.987h2.027v-6.987H634zm15.925 8.684l-.548-.467.348-.625a1.396 1.396 0 00-.318-1.73l-.548-.467.348-.625a1.396 1.396 0 00-.318-1.73l-.548-.467.348-.625c.114-.206.174-.437.172-.671 0-.552-.33-1.049-.84-1.275h-10.393v7.063l2.49 8.869c.064.228.202.428.393.571.19.144.423.222.663.224.19 0 .378-.054.528-.165a.869.869 0 00.366-.75l-.241-4.881h7.868c.445-.268.72-.721.72-1.191a1.4 1.4 0 00-.49-1.058z" class="Vector_7"/>
      </g>
      <path stroke="#444" stroke-width=".6" d="M91.285 581.773h624.593" class="Line 8"/>
      <g class="Polygon 9" filter="url(#filter0_f_54_110)">
        <path fill="#1E1E1E" d="M577.346 675.465l14.563 49.597h-29.126l14.563-49.597z"/>
      </g>
      <g class="Rectangle 41" filter="url(#filter1_d_54_110)">
        <path fill="#131313" d="M331.514 706.956h384.363v44.086H331.514v-44.086z"/>
      </g>
      <g class="Polygon 9_2" filter="url(#filter2_f_54_110)">
        <path fill="#1E1E1E" d="M479.654 675.466l14.563 49.597h-29.126l14.563-49.597z"/>
      </g>
      <path fill="#3B89FE" d="M19.6 19.186h1018v38.492H19.6V19.186z" class="Rectangle 35"/>
      <path fill="#111" stroke="#AAA" stroke-linejoin="round" d="M479.955 676.54h97.091v49.81h-97.091z" class="Rectangle 40"/>
      <g class="Polygon 8" filter="url(#filter3_d_54_110)">
        <path fill="#131313" d="M331.514 706.956l58.252 44.283H273.262l58.252-44.283z"/>
      </g>
      <g class="Polygon 5" filter="url(#filter4_d_54_110)">
        <path fill="#131313" d="M715.877 706.956l58.252 44.283H657.625l58.252-44.283z"/>
      </g>
      <g class="fluent:panel-separate-window-20-regular">
        <g class="Group_3">
          <path fill="#000" d="M956.265 28.026c-.595 0-1.165.3-1.586.83-.42.532-.656 1.253-.656 2.005v5.668c0 .752.236 1.472.656 2.004.421.531.991.83 1.586.83h8.968c.595 0 1.165-.299 1.586-.83.42-.532.656-1.252.656-2.004V30.86c0-.752-.236-1.473-.656-2.004-.421-.532-.991-.83-1.586-.83h-8.968zm-1.121 2.835c0-.376.118-.737.328-1.002.21-.266.495-.416.793-.416h8.968c.298 0 .583.15.793.416.21.265.328.626.328 1.002v5.668c0 .376-.118.736-.328 1.002-.21.266-.495.415-.793.415h-8.968c-.298 0-.583-.15-.793-.415a1.627 1.627 0 01-.328-1.002V30.86zm1.121 14.17V40.78h1.121v4.251c0 .376.118.736.328 1.002.21.266.496.415.793.415h13.453c.297 0 .582-.149.792-.415.211-.266.329-.626.329-1.002V33.695c0-.376-.118-.736-.329-1.002-.21-.266-.495-.415-.792-.415h-3.364V30.86h3.364c.594 0 1.164.298 1.585.83.42.531.657 1.252.657 2.004V45.03c0 .752-.237 1.473-.657 2.004-.421.532-.991.83-1.585.83h-13.453c-.595 0-1.165-.298-1.586-.83-.42-.531-.656-1.252-.656-2.004z" class="Vector_8"/>
        </g>
      </g>
      <g class="bi:x-lg">
        <g class="Group_4">
          <path fill="#000" fill-rule="evenodd" d="M1007.55 31.298a.68.68 0 01.2.487.68.68 0 01-.2.488l-15.416 15.155a.707.707 0 01-.992 0 .682.682 0 010-.976l15.418-15.154a.672.672 0 01.49-.203.708.708 0 01.5.203z" class="Vector_9" clip-rule="evenodd"/>
          <path fill="#000" fill-rule="evenodd" d="M991.142 31.298a.686.686 0 00-.152.751c.035.084.087.16.152.224l15.418 15.155a.708.708 0 00.99 0c.13-.13.2-.305.2-.488a.685.685 0 00-.2-.488l-15.416-15.154a.702.702 0 00-.764-.15.706.706 0 00-.228.15z" class="Vector_10" clip-rule="evenodd"/>
        </g>
      </g>
    </g>
    <g class="search">
      <g class="Group_5">
        <path fill="#999" d="M705.57 102.877l-7.627-7.5a8.111 8.111 0 01-5.642 1.395 8.046 8.046 0 01-5.114-2.73 7.79 7.79 0 01-1.884-5.41 7.81 7.81 0 012.338-5.238 8.074 8.074 0 015.327-2.3 8.092 8.092 0 015.505 1.852 7.839 7.839 0 012.777 5.027 7.773 7.773 0 01-1.419 5.548l7.628 7.5-1.887 1.855-.002.001zm-12.267-19.165a5.398 5.398 0 00-3.371 1.177 5.24 5.24 0 00-1.858 3.005 5.175 5.175 0 00.489 3.483 5.3 5.3 0 002.616 2.399 5.424 5.424 0 003.569.236 5.337 5.337 0 002.919-2.032 5.18 5.18 0 00-.471-6.61l.807.787-.91-.892-.016-.016a5.312 5.312 0 00-1.73-1.14 5.383 5.383 0 00-2.044-.397z" class="Vector_11"/>
      </g>
    </g>
  </g>
  <defs>
    <filter id="filter0_f_54_110" width="33.126" height="53.597" x="560.783" y="673.465" class="filter0_f_54_110" color-interpolation-filters="sRGB" filterUnits="userSpaceOnUse">
      <feFlood flood-opacity="0" result="BackgroundImageFix"/>
      <feBlend in="SourceGraphic" in2="BackgroundImageFix" result="shape"/>
      <feGaussianBlur result="effect1_foregroundBlur_54_110" stdDeviation="1"/>
    </filter>
    <filter id="filter1_d_54_110" width="392.364" height="53.086" x="327.514" y="706.956" class="filter1_d_54_110" color-interpolation-filters="sRGB" filterUnits="userSpaceOnUse">
      <feFlood flood-opacity="0" result="BackgroundImageFix"/>
      <feColorMatrix in="SourceAlpha" result="hardAlpha" values="0 0 0 0 0 0 0 0 0 0 0 0 0 0 0 0 0 0 127 0"/>
      <feOffset dy="5"/>
      <feGaussianBlur stdDeviation="2"/>
      <feComposite in2="hardAlpha" operator="out"/>
      <feColorMatrix values="0 0 0 0 0 0 0 0 0 0 0 0 0 0 0 0 0 0 0.5 0"/>
      <feBlend in2="BackgroundImageFix" result="effect1_dropShadow_54_110"/>
      <feBlend in="SourceGraphic" in2="effect1_dropShadow_54_110" result="shape"/>
    </filter>
    <filter id="filter2_f_54_110" width="33.126" height="53.597" x="463.091" y="673.466" class="filter2_f_54_110" color-interpolation-filters="sRGB" filterUnits="userSpaceOnUse">
      <feFlood flood-opacity="0" result="BackgroundImageFix"/>
      <feBlend in="SourceGraphic" in2="BackgroundImageFix" result="shape"/>
      <feGaussianBlur result="effect1_foregroundBlur_54_110" stdDeviation="1"/>
    </filter>
    <filter id="filter3_d_54_110" width="124.504" height="53.283" x="269.262" y="706.956" class="filter3_d_54_110" color-interpolation-filters="sRGB" filterUnits="userSpaceOnUse">
      <feFlood flood-opacity="0" result="BackgroundImageFix"/>
      <feColorMatrix in="SourceAlpha" result="hardAlpha" values="0 0 0 0 0 0 0 0 0 0 0 0 0 0 0 0 0 0 127 0"/>
      <feOffset dy="5"/>
      <feGaussianBlur stdDeviation="2"/>
      <feComposite in2="hardAlpha" operator="out"/>
      <feColorMatrix values="0 0 0 0 0 0 0 0 0 0 0 0 0 0 0 0 0 0 0.4 0"/>
      <feBlend in2="BackgroundImageFix" result="effect1_dropShadow_54_110"/>
      <feBlend in="SourceGraphic" in2="effect1_dropShadow_54_110" result="shape"/>
    </filter>
    <filter id="filter4_d_54_110" width="124.504" height="53.283" x="653.625" y="706.956" class="filter4_d_54_110" color-interpolation-filters="sRGB" filterUnits="userSpaceOnUse">
      <feFlood flood-opacity="0" result="BackgroundImageFix"/>
      <feColorMatrix in="SourceAlpha" result="hardAlpha" values="0 0 0 0 0 0 0 0 0 0 0 0 0 0 0 0 0 0 127 0"/>
      <feOffset dy="5"/>
      <feGaussianBlur stdDeviation="2"/>
      <feComposite in2="hardAlpha" operator="out"/>
      <feColorMatrix values="0 0 0 0 0 0 0 0 0 0 0 0 0 0 0 0 0 0 0.4 0"/>
      <feBlend in2="BackgroundImageFix" result="effect1_dropShadow_54_110"/>
      <feBlend in="SourceGraphic" in2="effect1_dropShadow_54_110" result="shape"/>
    </filter>
  </defs>
</svg>
