<svg width="159" height="156" viewBox="0 0 159 156" fill="none" xmlns="http://www.w3.org/2000/svg">
<path d="M42.5424 74.3731C54.4079 78.465 66.9254 80.4348 79.5 80.189C92.0749 80.4333 104.592 78.4618 116.458 74.3682C125.719 70.8241 129.004 66.8851 129.004 64.6182V47.2876C125.766 49.4151 122.292 51.1749 118.649 52.5331C106.095 56.9435 92.8326 59.0938 79.5 58.8804C66.1685 59.0897 52.9075 56.943 40.3512 52.5428C36.7065 51.1846 33.2322 49.4213 29.9963 47.2876V64.5939C29.9963 66.9046 33.2906 70.8241 42.5424 74.3731ZM42.5424 107.06C46.7341 108.628 51.0566 109.837 55.4612 110.672C63.3816 112.176 71.4328 112.915 79.5 112.881C87.567 112.917 95.6183 112.179 103.539 110.677C107.943 109.842 112.266 108.633 116.458 107.065C125.719 103.521 129.004 99.5817 129.004 97.3149V80.7886C126.327 82.3688 123.514 83.7146 120.597 84.8105C107.408 89.3918 93.4881 91.6095 79.5 91.3576C65.5104 91.6016 51.5901 89.3757 38.4035 84.7861C35.4874 83.6874 32.6744 82.3417 29.9963 80.7642V97.3051C29.9963 99.5768 33.2906 103.501 42.5424 107.06V107.06ZM79.5 146.25C106.828 146.25 129.004 137.748 129.004 127.267V113.436C126.569 114.877 124.018 116.119 121.377 117.151L120.597 117.458C107.411 122.053 93.4905 124.284 79.5 124.044C65.509 124.291 51.5873 122.06 38.4035 117.458C38.1352 117.361 37.8768 117.249 37.6234 117.151C34.9821 116.119 32.4313 114.877 29.9963 113.436V127.267C29.9963 137.748 52.1719 146.25 79.5 146.25Z" fill="#FFDA44"/>
<path d="M79.5 47.7165C106.84 47.7165 129.004 39.2174 129.004 28.7332C129.004 18.2491 106.84 9.75 79.5 9.75C52.1599 9.75 29.9963 18.2491 29.9963 28.7332C29.9963 39.2174 52.1599 47.7165 79.5 47.7165Z" fill="#FFDA44"/>
</svg>
