<svg width="116" height="97" viewBox="0 0 116 97" fill="none" xmlns="http://www.w3.org/2000/svg">
<path d="M56.1553 4.48016V8.97888H46.7213V11.9047H56.1553V20.865H59.8433V11.9047H69.5134V8.97888H59.8433V0H56.1553V4.48016Z" fill="#7099A6"/>
<path d="M25.3224 15.8914V22.4198H11.0422V26.5158H25.3224V39.7739H30.6186V26.5158H45.1131V22.4198H30.6186V9.36304H25.3224V15.8914Z" fill="#EB912C"/>
<path d="M85.1662 15.8914V22.4198H70.886V26.7171H85.1662V39.7739H90.6767V26.7171H104.956V22.4198H90.6767V9.36304H85.1662V15.8914Z" fill="#59879B"/>
<path d="M54.7833 38.128V45.4428H38.8949V50.8922H54.7833V65.5215H61.2158V50.8922H77.1038V45.4428H61.2158V30.8132H54.7833V38.128Z" fill="#E8762C"/>
<path d="M101.505 41.8216V46.4119H91.8344V50.1238H101.505V59.2855H106.329V50.1238H115.999V46.4119H106.329V37.2502H101.505V41.8216Z" fill="#5B6591"/>
<path d="M9.43452 42.224V46.613H0V49.7216H9.43452V58.4995H13.122V49.7216L22.7922 49.4291V46.613H13.122V37.8354H9.43452V42.224Z" fill="#7099A6"/>
<path d="M25.3224 62.888V69.4164H11.0422V73.7137H25.3224V86.7705H30.8329V73.7137H45.1131V69.4164H30.8329V56.3596H25.3224V62.888Z" fill="#C72035"/>
<path d="M85.1662 62.888V69.4164H70.886V73.5128H85.1662V86.7705H90.6767V73.5128H104.956V69.4164H90.6767V56.3596H85.1662V62.888Z" fill="#1F447E"/>
<path d="M55.7054 79.4742V84.0459H46.0352V87.7582H55.7054V96.9199H60.5298V87.7582H70.1999V84.0459H60.5298V74.8843H55.7054V79.4742Z" fill="#5B6591"/>
</svg>
